<svg xmlns="http://www.w3.org/2000/svg" width="24" height="24" viewBox="0 0 24 24">
    <g fill="none" fill-rule="evenodd">
        <g>
            <g transform="translate(-422 -806) translate(422 806)">
                <circle cx="12" cy="12" r="12" fill="#FFF"/>
                <g fill-rule="nonzero">
                    <path fill="#EFF3F5" d="M0 12.001C0 5.384 5.382 0 12 0s12 5.384 12 12.001C24 18.62 18.618 24 12 24S0 18.619 0 12.001zm23.002 0c0-6.066-4.935-11-11.002-11C5.933 1 .998 5.935.998 12c0 6.067 4.935 11.001 11.002 11.001 6.067 0 11.002-4.934 11.002-11z"/>
                    <g>
                        <path fill="#FFF" d="M0 8.99c0 1.031.175 2.053.522 3.021H17.48c.69-1.944.696-4.066.008-6.014H.51C.172 6.96 0 7.97 0 8.99z" transform="translate(3 3)"/>
                        <path fill="#ED2939" d="M9 17.98c3.909 0 7.238-2.489 8.48-5.969H.522C1.763 15.491 5.09 17.98 9 17.98zM9 0C5.082 0 1.747 2.503.51 5.997h16.978C16.255 2.503 12.92 0 9.001 0z" transform="translate(3 3)"/>
                    </g>
                </g>
            </g>
        </g>
    </g>
</svg>
