<svg xmlns="http://www.w3.org/2000/svg" width="24" height="24" viewBox="0 0 24 24">
    <g fill="none" fill-rule="evenodd">
        <g>
            <g>
                <g transform="translate(-579 -806) translate(422 806) translate(157)">
                    <circle cx="12" cy="12" r="12" fill="#FFF"/>
                    <g fill-rule="nonzero">
                        <path fill="#EFF3F5" d="M12 24.003c-6.618 0-12-5.382-12-12S5.382 0 12 0s12 5.385 12 12.003-5.382 12-12 12zM12 1C5.933 1 .998 5.935.998 12.003.998 18.07 5.933 23.005 12 23.005c6.067 0 11.002-4.935 11.002-11.002C23.002 5.935 18.065 1 12 1z"/>
                        <g>
                            <path fill="#F5DD25" d="M8.63 0C7.3-.003 5.985.318 4.795.934v16.11c2.417 1.245 5.254 1.245 7.67 0V.936C11.276.317 9.962-.003 8.63 0z" transform="translate(3 3)"/>
                            <path fill="#D81F27" d="M12.466.937v16.11c2.84-1.473 4.795-4.526 4.795-8.054 0-3.529-1.952-6.587-4.795-8.056z" transform="translate(3 3)"/>
                            <path fill="#020303" d="M0 8.99c0 3.528 1.952 6.584 4.795 8.053V.937C1.952 2.406 0 5.462 0 8.99z" transform="translate(3 3)"/>
                        </g>
                    </g>
                </g>
            </g>
        </g>
    </g>
</svg>
