<svg xmlns="http://www.w3.org/2000/svg" width="16" height="16"  fill="none" fill-rule="evenodd" xmlns:v="https://vecta.io/nano"><circle fill="#fff" cx="8" cy="8" r="8"/><g fill-rule="nonzero"><path d="M8 16a8.01 8.01 0 0 1-8-8 8.01 8.01 0 0 1 8-8 8.01 8.01 0 0 1 8 8 8.01 8.01 0 0 1-8 8zM8 .667C3.956.667.667 3.957.667 8S3.956 15.333 8 15.333s7.333-3.29 7.333-7.333S12.044.667 8 .667z" fill="#eff3f5"/><path d="M7.99 2C5.392 2 3.179 3.655 2.35 5.968h11.28C12.802 3.655 10.589 2 7.99 2z" fill="#fff"/><path d="M2.333 9.964h11.314a6.01 6.01 0 0 0-.017-3.996H2.35a6.01 6.01 0 0 0-.017 3.996h0z" fill="#00966e"/><path d="M13.647 9.964H2.333c.764 2.19 2.763 3.8 5.163 3.996h.989c2.399-.196 4.398-1.806 5.163-3.996z" fill="#d62613"/></g></svg>