<svg xmlns="http://www.w3.org/2000/svg" width="40" height="40" viewBox="0 0 40 40">
    <g fill="none" fill-rule="evenodd">
        <g fill="#0A3847">
            <g>
                <path d="M27.21 14.644L20 21.876l-7.212-7.232c-.318-.32-.738-.477-1.157-.477-.418 0-.838.157-1.156.477-.633.64-.633 1.682 0 2.32l8.367 8.39c.32.32.738.48 1.157.48.42 0 .84-.16 1.156-.48l8.366-8.39c.639-.638.639-1.68 0-2.32-.316-.32-.735-.477-1.155-.477-.417 0-.837.157-1.155.477z" transform="translate(-1241 -3990) translate(1241 3990) rotate(90 20 20)"/>
            </g>
        </g>
    </g>
</svg>
