<svg xmlns="http://www.w3.org/2000/svg" width="24" height="24" viewBox="0 0 24 24">
    <g fill="none" fill-rule="evenodd">
        <g>
            <g>
                <g transform="translate(-893 -862) translate(422 806) translate(471 56)">
                    <circle cx="12" cy="12" r="12" fill="#FFF"/>
                    <g fill-rule="nonzero">
                        <path fill="#EFF3F5" d="M0 12.001C0 5.384 5.382 0 12 0s12 5.384 12 12.001C24 18.62 18.618 24 12 24S0 18.619 0 12.001zm23.002 0c0-6.066-4.935-11-11.002-11C5.933 1 .998 5.935.998 12c0 6.067 4.935 11.001 11.002 11.001 6.067 0 11.002-4.934 11.002-11z"/>
                        <g transform="translate(3 3)">
                            <ellipse cx="9.001" cy="9" fill="#D52B1E" rx="9.001" ry="9"/>
                            <path fill="#FFF" d="M15.001 7.208L10.793 7.208 10.793 3 7.206 3 7.206 7.208 3.001 7.208 3.001 10.795 7.206 10.795 7.206 15 10.793 15 10.793 10.795 15.001 10.795z"/>
                        </g>
                    </g>
                </g>
            </g>
        </g>
    </g>
</svg>
