<svg xmlns="http://www.w3.org/2000/svg" viewBox="0 0 24 24" width="24" height="24">
	<style>
		tspan { white-space:pre }
		.shp0 { fill: #1574F5 } 
	</style>
	<g id="LP">
		<g id="Landing-Page-V4---Add-Contact-White">
			<path id="contact-phone" fill-rule="evenodd" class="shp0" d="M12 18.18C13.63 19.22 14.92 17.46 15.65 16.82C16.79 15.69 18.41 15.37 20.68 17.14C23.19 19.06 23.84 20.42 20.92 22.82C11.19 28.66 -5.1 11.37 1.55 2.24C4.14 -0.48 5.44 0.24 7.22 2.89C8.84 5.29 8.36 6.89 7.22 7.93C6.49 8.57 4.63 9.69 5.6 11.37C6.98 13.77 9.65 16.66 12 18.18ZM24 12.49C23.92 13.53 22.3 13.53 22.38 12.41C22.46 6.57 18 1.84 12.09 1.6C11.03 1.52 11.11 -0.08 12.17 0C19.06 0.32 24.08 5.69 24 12.49ZM15.73 12.17C15.73 13.29 14.19 13.29 14.11 12.25C14.03 10.65 13.38 9.93 11.68 9.69C10.63 9.61 10.79 8.01 11.84 8.09C14.35 8.41 15.65 9.77 15.73 12.17ZM19.87 12.25C19.95 13.29 18.33 13.37 18.24 12.33C18.08 8.25 15.98 6.09 11.92 5.61C10.87 5.53 11.03 3.93 12.09 4.01C16.95 4.57 19.7 7.45 19.87 12.25Z" />
		</g>
	</g>
</svg>