<svg xmlns="http://www.w3.org/2000/svg" viewBox="0 0 28 24" width="28" height="24">
	<style>
		tspan { white-space:pre }
		.shp0 { fill: #1574F5 } 
	</style>
	<g id="LP">
		<g id="Landing-Page-V4---Add-Contact-White">
			<path id="contact-mail" class="shp0" d="M28 4.68L28 18.43C28 19.85 26.86 21 25.45 21L25.45 21L2.55 21C1.14 21 0 19.85 0 18.43L0 18.43L0 5.02L11.68 15.46C12.34 16.04 13.16 16.33 13.99 16.33C14.83 16.33 15.67 16.03 16.34 15.44L16.34 15.44L28 4.68ZM25.45 1C26.27 1 26.99 1.39 27.45 1.99L27.45 1.99L14.78 13.69C14.34 14.08 13.67 14.08 13.22 13.69L13.22 13.69L0.39 2.22C0.83 1.49 1.63 1 2.55 1L2.55 1L25.45 1Z" />
		</g>
	</g>
</svg>