<svg xmlns="http://www.w3.org/2000/svg" width="232" height="200" viewBox="0 0 232 200">
    <g fill="none" fill-rule="evenodd">
        <g fill-rule="nonzero">
            <g>
                <g fill="#FDD8B3">
                    <path d="M0.239 0.285L25.983 188.709 198.819 43.913z" transform="translate(-104 -5876) translate(104 5876)"/>
                </g>
                <g>
                    <path fill="#FFF" d="M141.113 22.632c-.092.37-9.744 24.192-14.335 43.463-1.248 5.248 6.518 7.52 5.465 11.895-1.99 8.366 1.536 15.076 1.536 15.076s15.352 12.214 13.466 12.483c-.679.098-.944 6.478-1.18 6.951-1.245 2.484-6.356 34.413-9.686 34.51-31.775.941-62.084 1.99-66.78.43-6.97-2.316-28.822.236-28.822.236s-20.32-43.59-20.791-50.185c-.328-4.589 6.44-68.602 6.773-69.098.334-.496 29.049-8.127 29.049-8.127l85.305 2.366z" transform="translate(-104 -5876) translate(104 5876) translate(22.62 38.26)"/>
                    <path fill="#F07F1A" d="M55.747 20.865c-1.101.221-30.15 7.305-30.15 7.305l-5.669 50.185.236 23.802 20.789 47.664 98.032-1.273 9.686-42.643-94.025 2.824L42.2 89.651l5.513-11.623-1.023-10.13 9.056-47.033z" transform="translate(-104 -5876) translate(104 5876) translate(22.62 38.26)"/>
                    <path fill="#CC9F8B" d="M178.318 64.42l-.661-.35-28.215-14.874-5.807 9.764s29.705 15.222 30.369 15.222c.664 0 13.61.499 13.61.499l-6.638-9.93-2.658-.33z" transform="translate(-104 -5876) translate(104 5876) translate(22.62 38.26)"/>
                    <path fill="#CAE7EF" d="M189.88 42.634l-8.398 20.298 4.645 9.707-11.505 4.414-9.074 18.31s18.146 14.12 18.146 14.562c0 .442 4.869-3.31 4.869-3.31l10.175 1.765 8.186-47.215v-6.839L189.88 42.634z" transform="translate(-104 -5876) translate(104 5876) translate(22.62 38.26)"/>
                    <path fill="#F07F1A" d="M37.39 98.65c.925 0 .925-1.434 0-1.434-.927 0-.927 1.433 0 1.433zM97.572 82.278c3.077 2.148 5.28 5.216 7.42 8.241.863 1.196 2.844.052 1.987-1.147-2.384-3.363-4.823-6.676-8.245-9.062-1.217-.86-2.367 1.147-1.15 1.98l-.012-.012zM79.245 92.521c3.032-4.616 6.517-8.92 10.403-12.847 1.041-1.053-.575-2.676-1.628-1.623-4.02 4.07-7.625 8.53-10.762 13.312-.814 1.238 1.179 2.391 1.987 1.147v.011z" transform="translate(-104 -5876) translate(104 5876) translate(22.62 38.26)"/>
                    <path fill="#F07F1A" d="M82.443 93.617c.666-.208 1.368-.27 2.06-.181l-1.096-1.454c-.43 1.363-.746 2.76-.943 4.175-.104.766-.262 1.675.19 2.372.485.704 1.387.99 2.19.694 1.278-.393 2.302-.95 3.685-1.018 2.468-.126 4.688 1.199 7.159 1.047 2.47-.152 4.84-1.265 7.365-.952.82.103 1.214-.81 1.11-1.452-.355-2.218-.919-4.399-1.685-6.512l-.805 1.41c1.56-.252 3.1-.626 4.602-1.118 1.4-.456.802-2.672-.61-2.21-1.503.49-3.041.863-4.602 1.118-.294.08-.545.274-.696.539-.15.264-.19.578-.11.872.77 2.112 1.334 4.293 1.686 6.512l1.11-1.454c-1.975-.243-3.848.31-5.752.709-1.119.282-2.286.323-3.422.12-.932-.195-1.827-.533-2.761-.717-1.868-.379-3.802-.255-5.606.359-.31.109-.943.286-1.208.504.305.465.427.465.365 0l.098-.757c.193-1.235.481-2.454.863-3.645.242-.777-.403-1.373-1.11-1.45-.9-.1-1.81-.01-2.672.26-1.412.43-.808 2.647.613 2.214l-.018.015z" transform="translate(-104 -5876) translate(104 5876) translate(22.62 38.26)"/>
                    <path fill="#F07F1A" d="M96.203 82.59c-4.199 1.98-7.383 5.61-8.79 10.023l1.689-.686c-1.11-.48-2.077-1.234-2.813-2.19-.728-.964-2.517-.465-2.103.883.511 1.637.801 3.334.863 5.047.023.703.722 1.36 1.455 1.107 3.708-1.282 7.628-1.842 11.548-1.649.805.037 1.527-1.035.992-1.72-1.823-2.355-3.12-5.07-3.805-7.964-.287-1.236-2.37-1.001-2.26.304l.888 10.702 1.726-.992c-1.407-.792-2.914-1.064-4.504-1.219-1.726-.163-3.607-.16-5.094-1.147-.711-.5-1.284-1.172-1.665-1.953-.288-.522-.492-1.058-1.018-1.39-1.475-.933-3.348.88-4.504 1.61-1.064.672-.403 2.501.889 2.097l1.938-.608c1.407-.441.805-2.658-.612-2.214l-1.93.58.886 2.096c.345-.218 2.013-1.56 2.33-1.471-.36-.104.413 1.092.589 1.339.777 1.09 1.847 1.938 3.086 2.449 2.7 1.127 5.881.347 8.456 1.798.707.399 1.806-.092 1.725-.99l-.897-10.687-2.26.286c.721 3.09 2.094 5.99 4.026 8.509l.992-1.72c-4.125-.204-8.251.38-12.157 1.72l1.455 1.107c-.059-1.92-.373-3.822-.935-5.658l-2.102.886c.937 1.296 2.19 2.333 3.638 3.014.31.171.682.193 1.01.06.328-.133.579-.407.681-.745 1.253-3.835 4.057-6.972 7.734-8.652 1.338-.628.173-2.604-1.15-1.982l.003.02z" transform="translate(-104 -5876) translate(104 5876) translate(22.62 38.26)"/>
                    <path fill="#F07F1A" d="M88.098 81.552c-1.588 2.67-3.613 5.057-5.991 7.06l1.806 1.391c.764-1.164 1.368-2.426 1.795-3.75.37-1.128-1.128-1.876-1.924-1.116-.917.884-1.623 1.962-2.065 3.154-.351.906.9 1.867 1.69 1.296 1.53-1.107 3.026-2.256 4.476-3.467 1.45-1.21 2.761-2.518 4.553-3.105 1.4-.46.8-2.676-.613-2.214-1.725.573-3.097 1.606-4.466 2.764-1.651 1.403-3.337 2.753-5.103 4.035l1.692 1.296c.324-.813.827-1.544 1.472-2.139L83.5 85.641c-.377 1.132-.905 2.207-1.57 3.198-.765 1.147.862 2.188 1.806 1.39 2.52-2.138 4.666-4.679 6.35-7.518.76-1.274-1.23-2.43-1.987-1.147v-.012z" transform="translate(-104 -5876) translate(104 5876) translate(22.62 38.26)"/>
                    <path fill="#F07F1A" d="M97.986 83.634c.613 1.822 1.375 3.59 2.278 5.288l1.576-1.569-9.828-6.165c-1.257-.789-2.41 1.196-1.15 1.981l9.824 6.163c1.016.64 2.091-.596 1.574-1.568-.811-1.522-1.496-3.108-2.048-4.74-.469-1.392-2.692-.795-2.218.61h-.008z" transform="translate(-104 -5876) translate(104 5876) translate(22.62 38.26)"/>
                    <path fill="#F07F1A" d="M95.262 82.272c-3.287 2.997-6.514 6.022-9.23 9.564-.692.903.668 2.222 1.574 1.568l6.083-4.37-1.395-1.804c-1.98 1.807-3.711 3.868-5.148 6.128-.63.987.607 2.128 1.576 1.57 3.376-1.954 6.545-4.243 9.457-6.835L96.55 86.47c-2.152 1.913-4.274 3.9-5.497 6.553-.241.519-.195 1.288.412 1.569.887.443 1.918.506 2.853.175.602-.238 1.173-.546 1.702-.918.702-.442.633-.835.288 0-.707 1.626 0 3.888 2.18 3.312 2.24-.573 2.068-2.908 1.438-4.634-1.073-2.977-.446-5.9.288-8.89.356-1.434-1.861-2.045-2.218-.61-.517 2.084-1.035 4.226-1 6.388.007 1.029.164 2.05.465 3.034.164.522.42 1.021.553 1.552.089.35-.308 1.5.353.803.906-.958.754-3.08-.494-3.657-1.988-.92-3.544 2.254-5.25 1.466l.412 1.568c1.15-2.483 3.126-4.301 5.14-6.085 1.107-.986-.527-2.604-1.628-1.623-2.768 2.458-5.78 4.628-8.99 6.475l1.572 1.572c1.34-2.094 2.956-3.999 4.803-5.664.95-.86-.325-2.58-1.395-1.8l-6.08 4.372 1.574 1.57c2.588-3.37 5.752-6.247 8.867-9.103 1.095-.998-.535-2.618-1.625-1.62l-.012-.003z" transform="translate(-104 -5876) translate(104 5876) translate(22.62 38.26)"/>
                    <path fill="#F07F1A" d="M90.663 82.278c-1.577 2.186-2.895 4.546-3.928 7.034-.4.946.9 1.79 1.688 1.296 3.068-1.911 5.907-4.164 8.464-6.716 1.05-1.044-.575-2.667-1.625-1.62-2.416 2.413-5.1 4.545-7.998 6.355l1.688 1.296c.98-2.291 2.222-4.463 3.699-6.472.862-1.2-1.128-2.346-1.988-1.148v-.025z" transform="translate(-104 -5876) translate(104 5876) translate(22.62 38.26)"/>
                    <path fill="#F07F1A" d="M90.597 80.784c-2.065 1.658-3.938 3.541-5.582 5.615-.725.917.25 2.658 1.395 1.8l5.815-4.353c1.17-.86.026-2.867-1.15-1.981l-5.816 4.353 1.395 1.804c1.643-2.076 3.516-3.96 5.582-5.618 1.15-.924-.483-2.538-1.627-1.62h-.012z" transform="translate(-104 -5876) translate(104 5876) translate(22.62 38.26)"/>
                    <path fill="#F07F1A" d="M89.823 81.632c-2.256 2.641-4.78 5.043-7.53 7.17l1.626 1.623c3.041-2.377 5.828-5.06 8.317-8.007.95-1.121-.67-2.753-1.627-1.62-2.488 2.946-5.275 5.628-8.315 8.004-1.168.912.471 2.512 1.625 1.623 2.753-2.126 5.28-4.528 7.54-7.17.959-1.115-.66-2.747-1.627-1.623h-.009z" transform="translate(-104 -5876) translate(104 5876) translate(22.62 38.26)"/>
                    <path fill="#F07F1A" d="M101.201 89.823c-.123.031-.146.097-.069.195l.414-1.57c-2.398 1.581-5.464 4.572-3.186 7.583.687.912 2.045.608 2.142-.573.213-2.544.768-5.306.602-7.852-.153-2.334-2.014-2.538-3.92-2.188-1.281.236-2.547.543-3.794.917-1.228.37-2.589 1.148-3.88.812-1.726-.445-3.776-.91-4.481 1.293-.449 1.408 1.772 2.008 2.22.608.11-.341 1.657.324 1.853.373.653.159 1.334.171 1.993.037 1.748-.347 3.425-1.11 5.177-1.51.477-.11 2.042-.68 2.447-.425.325.203 0 1.846-.034 2.18l-.478 5.755 2.146-.574c-1.412-1.867.972-3.53 2.361-4.445.53-.333.711-1.02.411-1.569-.736-1.669-2.95-1.534-3.905-.195-.863 1.208 1.136 2.355 1.987 1.148h-.006z" transform="translate(-104 -5876) translate(104 5876) translate(22.62 38.26)"/>
                    <path fill="#F07F1A" d="M100.117 93.459c-3.517.748-6.92 1.609-10.54 1.41-2.992-.166-5.612.474-7.867 2.516h1.625c-.797-.84-1.937-1.268-3.092-1.162l.992 1.72 3.285-5.603c.748-1.276-1.24-2.431-1.987-1.147l-3.282 5.598c-.414.703.1 1.801.992 1.72.54-.092 1.09.091 1.467.488.453.436 1.172.436 1.625 0 2.5-2.26 5.211-1.72 8.298-1.77 3.086-.048 6.114-.931 9.097-1.565 1.438-.307.834-2.52-.613-2.21v.005z" transform="translate(-104 -5876) translate(104 5876) translate(22.62 38.26)"/>
                    <path fill="#F07F1A" d="M81.36 99.249c1.11-.643 3.102-.313 4.385-.485 1.546-.208 3.068-.566 4.544-1.07 1.395-.473.797-2.69-.612-2.21-1.703.595-3.474.975-5.272 1.132-1.438.115-2.908-.1-4.208.651-1.3.752-.124 2.722 1.15 1.982h.012zM100.376 81.515c-2.37-2.103-4.82-4.11-7.349-6.022-.353-.214-.796-.214-1.15 0-1.667 1.25-3.264 2.59-4.783 4.014l1.628 1.62c.575-.639 1.42-1.688 2.3-1.875l-1.118-.287c.728.803 1.242 2.223 1.772 3.155.463.829 1.892.7 2.102-.287.155-.728.199-1.807.552-2.475l-.995.574c.624 0 1.136.86 1.315 1.333l1.69-1.296c-1.072-.533-2.067-1.209-2.959-2.007l-1.392 1.8c1.216.769 2.253 1.787 3.04 2.989.811 1.23 2.804.08 1.988-1.147-1.001-1.532-2.32-2.832-3.869-3.811-1.09-.694-2.364.92-1.392 1.803 1.03.942 2.18 1.743 3.423 2.38.817.42 2.059-.286 1.69-1.293-.546-1.491-1.805-3-3.534-3.02-.41.002-.787.22-.992.574-.475.898-.575 2.036-.785 3.02l2.102-.287c-.518-.93-1.015-1.876-1.559-2.79-.307-.52-.575-1.059-1.23-1.147-1.375-.204-2.977 1.583-3.774 2.486-.97 1.104.543 2.647 1.628 1.62 1.37-1.299 2.81-2.521 4.314-3.662h-1.15c2.37 1.795 4.664 3.682 6.882 5.66 1.102.982 2.735-.636 1.628-1.62l-.023-.002z" transform="translate(-104 -5876) translate(104 5876) translate(22.62 38.26)"/>
                    <path fill="#F07F1A" d="M90.473 79.57c-1.083-.124-2.18.002-3.206.37-.557.151-.916.69-.839 1.26.077.571.566.996 1.143.994 1.02.054 2.042-.053 3.029-.315l-1.3-1.683c-.926 1.204.224 2.374 1.392 2.687.713.192 1.772.132 2.318.63.213.196.288.629.518.86.276.262.61.452.975.557 1.386.528 1.984-1.689.612-2.21l-.38-.147.688.528c-.56-.752-.719-1.434-1.622-1.853-.37-.146-.756-.249-1.15-.307l-.89-.178c-.517-.255-.67-.057-.462.594.659-.86-.426-1.884-1.3-1.686-.788.206-1.603.284-2.416.232l.308 2.254c.827-.3 1.715-.398 2.588-.287 1.47.164 1.458-2.133 0-2.294l-.006-.006z" transform="translate(-104 -5876) translate(104 5876) translate(22.62 38.26)"/>
                    <path fill="#4D4C4C" d="M141.113 19.546c-5.796.293-11.597.433-17.4.422-5.488 0-10.976-.123-16.46-.307-5.413-.178-10.826-.416-16.239-.642-5.464-.23-10.95-.445-16.428-.574-5.781-.146-11.565-.206-17.346-.132-.736 0-1.475.02-2.212.035v3.584l2.482-.223c.935-.084 1.844-.763 1.798-1.793-.04-.897-.794-1.88-1.798-1.792l-2.482.224c-.934.083-1.843.762-1.797 1.792.017.983.812 1.775 1.797 1.792 5.827-.106 11.657-.077 17.487.049 5.502.12 11.001.324 16.5.548 5.416.223 10.829.464 16.242.656 5.464.195 10.929.339 16.393.37 5.753.032 11.505-.06 17.257-.312.732-.03 1.466-.065 2.2-.103.938-.05 1.84-.792 1.798-1.793-.043-.932-.794-1.844-1.798-1.792l.006-.009zM143.699 145.967c-14.044.473-28.094.573-42.144.536-14.05-.037-28.168-.184-42.256-.22-7.871-.024-15.746 0-23.618.085v3.585l2.876-.17c.935-.054 1.84-.782 1.798-1.792-.044-.923-.794-1.85-1.798-1.792l-2.876.17c-.938.057-1.844.785-1.798 1.792.014.984.81 1.778 1.798 1.792 14.093-.17 28.186-.083 42.293 0s28.143.198 42.212.069c7.838-.072 15.678-.218 23.513-.482.937-.032 1.84-.8 1.797-1.792-.043-.944-.79-1.824-1.797-1.793v.012zM23.892 27.975c.29 3.565.22 7.15-.21 10.702-.05.43-.09.86-.158 1.29 0-.06.051-.384 0-.046l-.044.287c-.037.264-.074.528-.115.792-.138.885-.288 1.77-.451 2.652-.328 1.778-.705 3.548-1.107 5.308-.403 1.761-.834 3.508-1.272 5.257-.468 1.878-.96 3.728-1.185 5.655-.204 1.764-.21 3.539-.241 5.311-.017.886-.04 1.772-.098 2.656-.029.43-.066.86-.112 1.287-.004.097-.015.193-.035.287.018-.046.058-.399 0-.046-.034.238-.074.476-.118.711-.272 1.434-.464 2.881-.575 4.336-.12 1.778-.181 3.562-.23 5.346-.118 4.301-.152 8.629-.233 12.945-.06 3.306-.049 6.656-.446 9.942-.034.304.075-.51.04-.287 0 .06-.017.12-.028.18-.012.061-.032.196-.052.288-.172.917.259 1.978 1.257 2.205.886.2 2.013-.267 2.212-1.253.219-1.303.35-2.62.394-3.94.097-1.819.143-3.637.184-5.45.098-4.347.13-8.697.227-13.047.043-1.904.098-3.811.198-5.716.038-.748.087-1.5.153-2.245.026-.307.057-.614.092-.92l.026-.201c.023-.198-.084.573-.038.266l.06-.387c.279-1.422.482-2.858.61-4.301.118-1.77.093-3.542.156-5.311.029-.886.083-1.773.184-2.656l.034-.287c.035-.286-.072.44 0-.025.032-.19.06-.382.095-.574.09-.482.202-.958.32-1.434.448-1.78.9-3.562 1.328-5.345 1.706-7.07 3.141-14.319 2.908-21.623-.026-.874-.08-1.746-.155-2.618-.084-.932-.771-1.838-1.798-1.792-.906.04-1.887.791-1.797 1.792l.02.009z" transform="translate(-104 -5876) translate(104 5876) translate(22.62 38.26)"/>
                    <path fill="#F07F1A" d="M81.353 39.405c.8-.656 2.178-.401 2.971.118.403.26.878.7.829 1.233-.05.533-.616.964-.944 1.356-1.058 1.27.762 3.106 1.83 1.827.813-.975 1.676-1.83 1.702-3.183-.016-1.198-.582-2.322-1.536-3.051-1.915-1.555-4.754-1.72-6.68-.124-1.29 1.056.551 2.868 1.828 1.824z" transform="translate(-104 -5876) translate(104 5876) translate(22.62 38.26)"/>
                    <path fill="#F07F1A" d="M81.37 39.526c.908.73 1.725 1.564 2.434 2.486.417.556 1.119.843 1.769.462.552-.321.885-1.205.465-1.767-.822-1.11-1.774-2.12-2.835-3.008-.515-.484-1.318-.484-1.832 0-.458.459-.541 1.38 0 1.827z" transform="translate(-104 -5876) translate(104 5876) translate(22.62 38.26)"/>
                    <path fill="#F07F1A" d="M76.39 35.846c4.167 10.651 16.189 15.294 26.98 13.58 1.642-.262.946-2.748-.688-2.49-9.275 1.474-20.187-2.55-23.796-11.775-.601-1.531-3.104-.86-2.497.685z" transform="translate(-104 -5876) translate(104 5876) translate(22.62 38.26)"/>
                    <path fill="#F07F1A" d="M80.43 40.435l4.096 4.078c.425.394 1.087.383 1.498-.027.41-.41.422-1.07.026-1.493l-4.081-4.07c-.27-.287-.674-.406-1.056-.308-.382.097-.68.394-.778.776-.098.38.02.784.31 1.052l-.015-.008z" transform="translate(-104 -5876) translate(104 5876) translate(22.62 38.26)"/>
                    <path fill="#4D4C4C" d="M41.312 147.636c-.906-1.58-1.599-3.304-2.33-4.967-1.305-2.971-2.57-5.96-3.836-8.947-.046-.107-.09-.213-.132-.316-.044-.103-.222-.525 0 .029l-.288-.68-.575-1.342-1.15-2.716-2.537-5.987c-1.582-3.727-3.18-7.446-4.795-11.159-1.377-3.154-2.77-6.286-4.248-9.389l-.425-.932c-.412-.86-1.689-1.147-2.46-.642-.837.514-1.12 1.594-.644 2.452 1.438 2.982 2.799 6.022 4.133 9.042 1.617 3.668 3.196 7.353 4.766 11.043.408.956.815 1.912 1.22 2.868l.287.651.147.347.072.172c.086.2-.173-.404-.052-.126.198.473.4.946.598 1.417l2.3 5.448c1.364 3.224 2.725 6.444 4.122 9.65.811 1.864 1.6 3.76 2.551 5.558.058.112.118.22.182.33.321.558.918.901 1.564.9.645-.003 1.24-.35 1.559-.91.318-.56.31-1.247-.02-1.8l-.009.006zM139.29 21.508c-1.907 5.801-3.596 11.669-5.362 17.513-1.996 6.596-4.124 13.166-6.169 19.756-1.05 3.39-2.05 6.793-3.028 10.206-.17.618.002 1.28.453 1.735.452.457 1.113.638 1.735.477.621-.162 1.11-.642 1.28-1.26 1.686-5.887 3.5-11.732 5.35-17.568 2.174-6.86 4.245-13.745 6.327-20.63.932-3.103 1.878-6.2 2.876-9.274.256-.953-.302-1.935-1.254-2.205-.953-.24-1.926.311-2.209 1.25z" transform="translate(-104 -5876) translate(104 5876) translate(22.62 38.26)"/>
                    <path fill="#4D4C4C" d="M30.82 52.376c1.053 4.497 4.012 8.225 7.216 11.43 3.477 3.474 7.248 6.64 11.272 9.464 8.108 5.69 17.392 9.418 26.986 11.758 9.024 2.2 18.29 3.26 27.58 3.154 9.239-.104 18.432-1.32 27.38-3.622 8.928-2.293 17.536-5.684 25.626-10.094 1-.547 1.99-1.109 2.97-1.686.556-.324.895-.917.892-1.558-.003-.64-.35-1.231-.907-1.549-.559-.317-1.244-.314-1.8.01-7.637 4.498-15.812 8.02-24.33 10.487-8.524 2.495-17.319 3.949-26.194 4.327-8.871.408-17.759-.284-26.46-2.059-9.27-1.904-18.352-4.967-26.405-9.942-3.996-2.481-7.75-5.328-11.217-8.503-3.213-2.922-6.368-5.922-8.226-9.833-.4-.879-.71-1.795-.926-2.736-.263-.955-1.254-1.516-2.211-1.253-.958.263-1.52 1.25-1.257 2.205h.011zM147.745 46.887c-2.236 3.353-4.111 6.931-5.594 10.677-.129.466-.063.964.181 1.382.24.4.623.695 1.073.823 1.036.235 1.84-.316 2.212-1.253l.267-.666c.044-.1.08-.203.127-.3-.204.43 0 .02.023-.055.192-.423.383-.842.575-1.26.4-.863.824-1.715 1.269-2.554.905-1.712 1.898-3.376 2.973-4.987.493-.857.204-1.948-.647-2.452-.86-.476-1.945-.192-2.459.645z" transform="translate(-104 -5876) translate(104 5876) translate(22.62 38.26)"/>
                    <path fill="#4D4C4C" d="M142.977 59.846c3.854 2.467 7.784 4.815 11.792 7.046 3.97 2.214 8.009 4.305 12.114 6.272 2.331 1.115 4.682 2.19 7.052 3.23.424.226.918.29 1.386.18.45-.128.834-.422 1.073-.823.411-.777.288-2.05-.644-2.452-4.184-1.83-8.306-3.787-12.367-5.87-4.062-2.084-8.045-4.283-11.95-6.596-2.232-1.323-4.438-2.684-6.616-4.084-.859-.49-1.953-.203-2.459.645-.478.858-.194 1.939.645 2.452h-.026zM148.677 49.442c4.069 2.677 8.227 5.213 12.474 7.608 4.247 2.396 8.547 4.626 12.902 6.69 2.48 1.176 4.981 2.305 7.506 3.387.425.226.918.29 1.387.181.451-.128.836-.423 1.075-.826.409-.768.288-2.056-.647-2.452-4.473-1.911-8.876-3.98-13.21-6.203-4.333-2.223-8.566-4.58-12.698-7.068-2.352-1.423-4.677-2.89-6.974-4.402-.859-.491-1.954-.204-2.46.645-.474.858-.19 1.936.645 2.452v-.012z" transform="translate(-104 -5876) translate(104 5876) translate(22.62 38.26)"/>
                    <path fill="#4D4C4C" d="M181.54 67.311c1.435 2.812 3.17 5.462 5.176 7.903.593.732 1.933.663 2.54 0 .716-.777.636-1.755 0-2.535l-.337-.413-.204-.258c-.155-.198.19.25.04.05-.224-.288-.448-.597-.667-.899-.437-.599-.863-1.213-1.257-1.835-.796-1.234-1.526-2.51-2.185-3.823-.505-.85-1.602-1.136-2.46-.642-.835.516-1.119 1.594-.644 2.452h-.003z" transform="translate(-104 -5876) translate(104 5876) translate(22.62 38.26)"/>
                    <path fill="#4D4C4C" d="M188.028 72.731l-14.14.499c-.937.034-1.84.803-1.797 1.792.044.944.791 1.83 1.798 1.793l14.139-.5c.937-.034 1.84-.8 1.797-1.792-.043-.943-.79-1.826-1.797-1.792zM205.236 56.164l-8.387 20.892-8.34 20.756-4.698 11.695c-.127.466-.062.964.182 1.382.24.401.624.696 1.075.823 1.039.238 1.835-.316 2.212-1.25l8.381-20.877 8.34-20.757 4.703-11.709c.128-.466.062-.964-.181-1.382-.24-.401-.625-.696-1.076-.823-1.038-.235-1.835.315-2.211 1.25z" transform="translate(-104 -5876) translate(104 5876) translate(22.62 38.26)"/>
                    <path fill="#4D4C4C" d="M208.12 54.082l-12.08-11.167-3.45-3.203c-.688-.64-1.867-.731-2.543 0-.676.731-.736 1.853 0 2.535l12.08 11.167 3.45 3.203c.691.637 1.87.732 2.543 0 .673-.731.737-1.852 0-2.535z" transform="translate(-104 -5876) translate(104 5876) translate(22.62 38.26)"/>
                    <path fill="#4D4C4C" d="M189.196 40.205l-7.363 18.74c-.7 1.782-1.421 3.537-1.496 5.475.008.987.808 1.785 1.798 1.793.984-.02 1.777-.811 1.797-1.793 0-.089 0-.175.015-.263v-.152c0 .26 0-.015.017-.086.017-.072.029-.173.046-.259.081-.387.183-.77.305-1.147.239-.751.535-1.482.822-2.214l1.832-4.665 3.63-9.237 2.065-5.248c.127-.459.066-.949-.17-1.363-.236-.413-.627-.716-1.087-.842-1.032-.236-1.843.315-2.211 1.25v.011zM173.141 77.087c-2.278 5.198-4.556 10.392-6.833 15.58-.351.8-.737 1.635-.682 2.535.067.832.339 1.635.79 2.338.678 1.094 1.48 2.105 2.394 3.014 1.656 1.68 3.59 3.054 5.404 4.553 2.29 1.893 4.416 3.975 6.353 6.226.616.714 1.921.677 2.543 0 .679-.708.679-1.824 0-2.532-1.664-1.935-3.468-3.746-5.396-5.42-1.757-1.52-3.658-2.868-5.384-4.428-.423-.381-.831-.774-1.225-1.187-.187-.198-.371-.398-.55-.605-.074-.089-.152-.178-.227-.27l-.146-.18c-.207-.253.16.218.031.04-.341-.466-.654-.951-.937-1.454-.159-.287.074.287 0-.032-.026-.077-.047-.155-.064-.235.023 0 0 .382.02.172 0-.091.06-.31-.02-.083-.08.227 0 .038 0-.017.046-.172.098-.335.156-.502.123-.355-.029.063-.032.06.022-.063.049-.124.08-.183.07-.152.136-.307.202-.459l.428-.978.829-1.89 1.656-3.78 3.716-8.473c.227-.424.291-.915.182-1.383-.128-.45-.425-.832-.829-1.07-.776-.41-2.056-.286-2.459.643zM205.69 58.074c.049 1.691.009 3.383-.12 5.07-.068.84-.152 1.68-.254 2.52-.023.205-.052.408-.078.615-.034.27.067-.465 0-.05 0 .081-.023.164-.034.245-.066.45-.135.9-.207 1.347-.55 3.364-1.335 6.685-2.195 9.98-1.708 6.564-3.724 13.074-4.788 19.787-.657 3.854-.889 7.768-.69 11.672l1.797-1.792c-1.584-.04-3.166-.128-4.746-.261-.776-.065-1.553-.144-2.33-.235-.373-.044-.75-.09-1.124-.138-.374-.049.213.031-.014 0l-.288-.037-.633-.092c-.467-.111-.96-.047-1.383.18-.403.238-.7.621-.828 1.07-.193.86.261 2.06 1.257 2.205 3.34.503 6.707.802 10.083.896.926.022 1.855-.844 1.798-1.793-.104-1.687-.112-3.377-.023-5.065.04-.84.106-1.68.19-2.517.037-.388.08-.778.126-1.165.023-.203.052-.407.075-.61.055-.434-.058.418 0 0l.052-.368c.51-3.358 1.2-6.687 2.062-9.974 1.668-6.595 3.716-13.09 4.89-19.787.725-3.849 1.054-7.761.98-11.677-.029-.938-.805-1.838-1.798-1.792-.949.04-1.826.788-1.797 1.792l.02-.026zM160.621 71.237c.269-1.77.247-3.573-.063-5.337-.118-.768-.27-1.531-.428-2.294-.078-.381-.159-.76-.239-1.147l-.106-.536c-.084-.367 0 .286 0 .08 0-.1 0-.078-.02.072-.01.125-.048.247-.113.355l-2.813.373c.158.132.31.272.458.422l.19.206.071.086c.098.118.098.115 0 0-.097-.244 0 .02.06.089.061.069.127.186.188.287.098.157.192.32.287.49.044.083.084.166.124.252.118.256 0 .09-.026-.063.043.195.15.396.21.574.118.384.158.78.265 1.164-.043-.152-.046-.373-.018-.083 0 .109.024.218.03.327 0 .224.02.45.02.677 0 .226 0 .496-.035.742 0 .112-.02.224-.032.336-.04.444.05-.261 0 0-.163.962-.406 1.908-.725 2.83-.21.784.128 1.612.829 2.025.673.356 1.642.33 2.177-.287.535-.616 1.027-1.121 1.582-1.643.27-.255.543-.502.825-.743.15-.126.288-.252.452-.375l.204-.164c.095-.074.334-.18 0 0 .364-.234.708-.496 1.03-.786.246-.186.48-.386.704-.599.638-.6 1.104-1.358 1.352-2.197.208-.782-.129-1.608-.825-2.024-.714-.376-1.589-.26-2.18.287-2.23 1.776-4.343 3.691-6.328 5.735-.653.677-.725 1.873 0 2.535.71.683 1.834.683 2.543 0 1.985-2.044 4.098-3.96 6.327-5.735l-3.003-1.744c-.029.064-.05.132-.063.2 0-.062.178-.355.058-.14-.08.114-.152.233-.216.356.02-.06.25-.287.086-.112-.057.066-.115.132-.178.195-.063.063-.204.204-.314.287-.109.083-.218.19-.333.287-.043.037-.253.197-.035.028l-.034.026c-.363.272-.725.545-1.079.826-1.126.892-2.17 1.884-3.115 2.965l3.006 1.744c.75-2.171 1.104-4.445.753-6.728-.285-1.966-1.257-3.77-2.743-5.093-.402-.386-.958-.568-1.51-.493-.55.06-1.038.38-1.312.86-.575 1.018-.287 2.06-.066 3.126.17.806.342 1.612.486 2.423.032.18.063.361.092.542.017.112.035.224.049.336.035.23.023.051 0-.07.075.402.113.809.112 1.217.017.381.023.763 0 1.147 0 .203-.02.407-.04.608 0 .057-.058.441 0 .166.057-.275-.026.146-.029.164-.114.467-.05.96.181 1.382.24.4.623.695 1.073.823.863.198 2.048-.264 2.212-1.253l-.015-.006zM122.853 18.299c.318-3.125.28-6.276-.115-9.392-.015-.472-.202-.923-.527-1.267-.353-.313-.8-.497-1.271-.525-5.79-.686-11.614-.981-17.438-1.147-2.908-.078-5.815-.124-8.723-.167-.41-.023-.821 0-1.225.072-.636.147-1.18.554-1.499 1.121-.417.766-.376 1.721-.454 2.581l-.391 4.302-.446 4.875c-.086.549 0 1.11.244 1.609.45.78 1.363 1.172 2.24.96.85-.241 1.437-1.014 1.439-1.895 0-.964-.863-1.95-1.898-1.85-.474.015-.926.202-1.272.525-.334.338-.523.793-.526 1.268.04.894.794 1.892 1.798 1.792h.054l-.908-.247.034.023-.825-1.072-.058-.385.245-.906.534-.527.906-.244h-.06l.906.244.35.607c.231.65.349.842.355.574.005-.06.005-.12 0-.18 0-.167.031-.33.046-.494l.089-.99.175-1.903.34-3.728.175-1.907.078-.846.043-.494c0-.071.014-.14.02-.212.023-.287 0 .046-.026.152.029-.166.104-.12-.092.166l-.388.287c-.104.19-.304.308-.52.31-.288.069.054 0 .152 0l.992.017 1.915.029c5.03.08 10.067.195 15.086.507 2.847.178 5.688.422 8.521.757l-1.797-1.792c.395 3.116.433 6.267.115 9.392-.095.935.894 1.832 1.797 1.792 1.056-.046 1.695-.788 1.798-1.792h.012zM86.57 19.102c-.07-.846-.3-1.67-.675-2.432-.265-.574-.601-1.107-.9-1.66-.067-.127-.133-.253-.196-.382-.029-.057-.055-.117-.084-.175-.14-.286 0 .038.03.075-.154-.306-.266-.631-.331-.967-.087-.31-.141-.619-.205-.932-.04-.2.02.155.02.161-.002-.085-.012-.17-.028-.252-.015-.184-.02-.367-.032-.551-.057-1.115-.575-2.188-1.726-2.51-.862-.237-1.817.032-2.692.156l-.491.066c-.265.037.322-.043.057 0l-.213.028-1.124.144c-.725.091-1.452.177-2.18.258-2.892.317-5.789.56-8.692.728-1.44.084-2.878.147-4.314.19-1.438.042-2.856 0-4.277.077-.705-.006-1.374.311-1.815.86-.575.726-.494 1.583-.144 2.378.308.696.668 1.376 1.022 2.053.743 1.42 1.541 2.81 2.392 4.17.495.794 1.628 1.178 2.46.642.843-.51 1.128-1.595.644-2.452-.645-1.03-1.258-2.082-1.841-3.155-.286-.521-.564-1.046-.834-1.574-.132-.264-.268-.528-.397-.794l-.181-.367c-.038-.084-.078-.167-.118-.247.091.155.147.328.164.508l-.276.906-.811.608c-.325.034-.394.049-.202.04.142.009.284.009.426 0h.71l1.703-.029c1.087-.027 2.174-.062 3.262-.106 2.174-.092 4.345-.227 6.514-.407 2.169-.18 4.331-.406 6.488-.68 1.15-.14 2.287-.287 3.426-.453l.423-.06c.12-.017.575-.034.028 0h.115c-.295-.016-.573-.144-.776-.359-.46-.458-.371-.768-.288-.467-.118-.513-.037-.264-.028-.1.008.163 0 .252.02.378.028.37.077.74.135 1.107.202 1.192.61 2.34 1.202 3.396.256.464.532.917.765 1.393.041.068.076.14.104.215-.101-.243-.115-.286-.044-.097.03.074.055.146.081.223.026.078.07.224.098.339.029.115.034.152.046.226-.035-.286-.04-.324-.023-.123.072.932.773 1.835 1.797 1.792.912-.043 1.876-.791 1.798-1.792l.009.006zM54.019 18.64c-8.778 1.133-17.116 4.015-25.359 7.124l-1.76.665-.126.049c-.21.066-.164.074.138.023-.274-.008-.548.02-.814.083-.42.104-.802.323-1.102.633-.532.559-.686 1.377-.392 2.09.294.712.98 1.185 1.753 1.208.547.011 1.076-.201 1.464-.588.228-.229.391-.515.471-.828.112-.486.042-.997-.198-1.434-.236-.405-.623-.7-1.076-.823-.957-.26-1.945.298-2.212 1.25-.097.468-.033.955.182 1.382l.02.043-.182-1.382v.04l.464-.791 1.892-.258.644.642-.026-.046.248.906v-.08l-.248.906-.48.456c-.661.135-.831.192-.506.172.075 0 .147 0 .221-.017.33-.03.654-.11.96-.235l1.384-.525c.88-.33 1.763-.662 2.65-.99 1.767-.657 3.545-1.293 5.332-1.906 3.526-1.23 7.115-2.27 10.753-3.115 1.009-.227 2.024-.434 3.046-.622.533-.097 1.067-.187 1.602-.27l.805-.12.27-.04h-.074l.27-.034c.473-.018.925-.204 1.272-.525.337-.336.526-.792.526-1.268 0-.475-.19-.931-.526-1.267-.333-.343-.793-.533-1.272-.525l-.014.017zM105.297 36.386l-.184.82c-.127.458.142.933.602 1.06.46.126.936-.143 1.063-.601l.184-.823c.126-.459-.144-.933-.604-1.059-.46-.126-.935.144-1.061.603zM93.683 36.612c-.006.384.15.753.429 1.018.163.158.381.249.61.253.228-.003.446-.093.61-.253.161-.161.252-.38.252-.608 0-.228-.091-.447-.253-.608-.025-.023-.048-.047-.069-.074l.135.172c-.026-.034-.048-.07-.066-.11l.086.204c-.018-.047-.03-.096-.037-.146l.029.227c-.002-.025-.002-.05 0-.075-.004-.228-.095-.446-.253-.61-.162-.163-.382-.254-.611-.254-.23 0-.45.091-.612.253-.157.166-.246.384-.25.611z" transform="translate(-104 -5876) translate(104 5876) translate(22.62 38.26)"/>
                    <path fill="#4D4C4C" d="M128.694 64.409c3.237 5.208 7.135 9.978 11.596 14.192 4.662 4.406 9.817 8.264 15.362 11.497 3.175 1.856 6.463 3.513 9.844 4.964.355.18.755.255 1.15.212.391-.042.756-.216 1.033-.493 1.518-1.588 2.543-3.58 2.951-5.736.124-.73-.026-1.408-.644-1.884-.578-.438-1.362-.493-1.996-.14-3.529 1.832-5.574 6.234-4.05 10.037.431 1.13 1.12 2.144 2.014 2.962.702.625 1.86.743 2.542 0 .627-.682.748-1.867 0-2.532-.138-.123-.287-.252-.4-.384l-.212-.235-.087-.104c-.155-.183.098.118.118.152-.175-.318-.402-.6-.575-.929-.017-.037-.034-.077-.055-.115-.123-.252.087.198.08.193-.04-.075-.07-.155-.088-.238-.06-.172-.112-.347-.156-.522-.043-.175-.066-.33-.1-.494-.035-.163.057.287.034.267-.013-.054-.02-.11-.02-.166 0-.098-.014-.192-.02-.287v-.502-.25-.126c.017-.252-.037.213-.034.227.005-.184.04-.366.103-.54.04-.18.09-.355.147-.53.026-.083.054-.163.086-.243.032-.08.032-.078.046-.118.058-.184-.11.27-.1.23.065-.192.154-.374.267-.543.083-.154.175-.304.27-.45l.153-.215.077-.109c.118-.172-.261.307-.115.155.305-.324.593-.637.93-.932.206-.184-.343.238-.032.023.103-.072.207-.146.313-.215.204-.132.414-.25.63-.361l-2.64-2.025c-.067.419-.163.833-.288 1.239-.09.216-.17.438-.239.662.035-.166.13-.287.018-.049-.05.107-.101.216-.156.322-.198.397-.423.78-.673 1.147-.057.086-.118.166-.175.25-.242.346.25-.302-.02.028-.158.19-.32.378-.49.573l2.18-.286c-5.91-2.528-11.523-5.701-16.732-9.464-.621-.45-1.234-.915-1.847-1.376.435.327-.08-.063-.18-.144l-.452-.352c-.314-.25-.625-.502-.935-.755-1.185-.969-2.341-1.973-3.469-3.01-2.228-2.048-4.326-4.23-6.284-6.536-.533-.627-1.054-1.263-1.562-1.907l-.201-.258c-.21-.27.239.31.014.017l-.36-.525c-.238-.318-.477-.637-.71-.958-.972-1.338-1.891-2.709-2.758-4.112-.492-.8-1.63-1.176-2.459-.645-.844.51-1.129 1.597-.644 2.454v-.008zM148.464 103.028c-6.238.737-12.534.749-18.81.8-3.163.023-6.356.052-9.53.173-3.176.12-6.288.39-9.429.685-1.63.155-3.264.287-4.89.315-1.624.03-3.318 0-4.978-.02-3.333 0-6.666.083-9.997.233-6.664.3-13.316.817-19.983 1.104-3.299.14-6.6.223-9.902.195-1.667-.014-3.33-.059-4.99-.135-.797-.037-1.628-.15-2.414.037-.624.129-1.149.55-1.409 1.13-.328.767-.091 1.658.575 2.162.673.52 1.864.729 2.603.201.74-.528 1.202-1.586.645-2.452-.49-.754-1.643-1.227-2.46-.642l.734-.195c-.135 0-.11 0 .072.014.102 0 .201.029.287.083.156.08.19.092.101.035l.644.645-.02-.034.181 1.382v-.032l-.828 1.07c.02 0-.449.166-.239.103.21-.063-.158.037-.158.02 0-.017.411 0 .449 0 .405 0 .814.04 1.222.06.767.037 1.534.065 2.301.086 1.57.046 3.144.06 4.714.055 3.15-.014 6.299-.123 9.445-.287 6.327-.304 12.655-.783 18.982-1.055 3.164-.138 6.35-.224 9.529-.21 3.129 0 6.224.032 9.341-.255 3-.287 5.988-.573 8.997-.69 3.008-.118 6.04-.17 9.071-.196 5.988-.054 11.99-.031 17.958-.573.73-.07 1.461-.147 2.192-.233.929-.109 1.844-.745 1.798-1.792-.04-.86-.797-1.91-1.798-1.792l-.006.005z" transform="translate(-104 -5876) translate(104 5876) translate(22.62 38.26)"/>
                    <path fill="#4D4C4C" d="M52.676 107.826c-.745 2.409-1.51 4.815-2.359 7.192-.421 1.184-.866 2.359-1.334 3.525-.112.287-.224.553-.34.829l-.08.192c-.127.304 0 0 .02-.05-.057.173-.144.342-.216.508-.247.574-.503 1.13-.762 1.692-.353.715-.65 1.456-.886 2.217-.241.887-.29 1.815-.143 2.722.124.45.42.836.825 1.072.42.239.918.303 1.386.18.452-.126.836-.422 1.073-.825.217-.426.281-.913.181-1.38 0 0 .02.356.032.158v-.189-.255c0-.086.037-.261 0 0-.038.26.026-.135.043-.201.037-.17.08-.335.132-.502.038-.12.199-.783.288-.806 0 0-.141.313-.049.12.026-.06.052-.123.08-.183.072-.163.15-.324.222-.487.575-1.224 1.11-2.466 1.605-3.728.917-2.263 1.726-4.566 2.49-6.883.432-1.316.846-2.635 1.255-3.96.254-.953-.304-1.934-1.254-2.205-.956-.243-1.932.31-2.212 1.253l.003-.006zM147.757 104.25c-1.84 5.305-3.523 10.658-5.05 16.06-1.51 5.352-2.859 10.743-4.047 16.17-.668 3.06-1.282 6.126-1.844 9.2-.116.467-.051.96.181 1.382.24.401.623.696 1.073.823.88.2 2.03-.266 2.212-1.253.995-5.441 2.153-10.848 3.474-16.22 1.342-5.418 2.836-10.793 4.481-16.125.947-3.047 1.942-6.078 2.985-9.09.257-.954-.302-1.936-1.254-2.206-.954-.237-1.927.314-2.211 1.253v.006zM145.884 102.89c-.207-.065-.41-.143-.615-.217-.268-.1.15.063.164.071-.055-.031-.118-.051-.173-.077-.118-.054-.233-.109-.348-.17-.428-.216-.844-.457-1.245-.722-.216-.14-.429-.287-.636-.441l-.287-.218c-.159-.115.164.129.152.12-.067-.06-.137-.115-.21-.166-.411-.33-.81-.671-1.205-1.024-1.688-1.52-3.23-3.192-4.838-4.795-.862-.86-1.765-1.72-2.717-2.5-.345-.325-.798-.512-1.272-.525-.475.003-.93.191-1.268.525-.607.66-.777 1.898 0 2.535 3.58 2.948 6.368 6.773 10.216 9.414 1.024.71 2.147 1.264 3.333 1.646.957.254 1.94-.304 2.212-1.253.24-.951-.314-1.922-1.257-2.202h-.006z" transform="translate(-104 -5876) translate(104 5876) translate(22.62 38.26)"/>
                    <path fill="#4D4C4C" d="M114.428 125.606c3.998.005 7.991.238 11.962.697l1.476.186c-.553-.072-.115-.017 0 0l.382.052.762.112c.98.149 1.958.312 2.934.49 1.988.367 3.96.802 5.913 1.305 1.954.503 3.871 1.076 5.752 1.72.96.325 1.904.67 2.836 1.036.475.183.952.375 1.424.573l.305.126-.179-.074.202.086.704.307c3.673 1.61 7.184 3.566 10.484 5.841.408.287.814.574 1.213.86.196.141.389.287.576.428l.31.232c.043.035.087.069.133.1.187.147-.04-.025-.101-.077.79.645 1.593 1.27 2.364 1.939 1.563 1.35 3.05 2.787 4.455 4.301.35.383.693.765 1.033 1.147.62.709 1.915.68 2.54 0 .68-.708.68-1.826 0-2.535-2.815-3.19-5.97-6.067-9.408-8.577-3.284-2.4-6.798-4.471-10.49-6.183-3.774-1.754-7.687-3.192-11.7-4.301-3.972-1.094-8.016-1.91-12.102-2.444-4.066-.544-8.16-.85-12.26-.915h-1.525c-.993 0-1.798.803-1.798 1.793 0 .99.805 1.792 1.798 1.792l.005-.017zM79.737 125.101c.288-.092.595-.175.9-.24.15-.032.288-.06.452-.087.164-.026.46-.017-.118 0 .092 0 .181-.02.287-.028.632-.053 1.267-.042 1.896.031.13 0 .305.078-.21-.029.089.018.181.03.27.043.138.023.27.052.406.08.319.07.632.156.943.253.31.098.598.204.895.321.296.118-.406-.183-.072-.028l.178.077c.178.083.357.17.532.258.64.33 1.258.7 1.85 1.11.146.1.287.204.437.31l.172.126c.037.026.325.25.08.057-.244-.192.044.038.078.063l.216.175c.16.128.317.26.475.396 1.262 1.116 2.43 2.333 3.494 3.64.262.309.518.624.77.943.067.086.136.169.202.258-.253-.339-.066-.083 0 0 .147.192.288.387.437.573.504.68.987 1.374 1.458 2.08.915 1.367 1.78 2.772 2.606 4.2 1.795 3.1 3.417 6.31 4.964 9.53 1.827 3.814 3.547 7.68 5.266 11.545.238.404.624.699 1.076.823.46.127.952.066 1.367-.169.414-.235.719-.625.845-1.084.1-.467.036-.954-.181-1.38-3.066-6.882-6.103-13.813-9.83-20.36-1.738-3.119-3.726-6.092-5.946-8.89-2.102-2.6-4.573-5.064-7.515-6.713-2.942-1.65-6.376-2.349-9.646-1.31-.895.286-1.562 1.258-1.254 2.205.287.894 1.25 1.557 2.211 1.25l.009-.029zM121.63 90.42c-7.637-.236-15.28.086-22.87.963-1.637.186-1.654 2.77 0 2.58 7.59-.877 15.233-1.199 22.87-.963 1.665.052 1.665-2.53 0-2.58zM81.44 91.945l-13.429-.376c-1.665-.046-1.665 2.535 0 2.581l13.429.376c1.665.046 1.665-2.535 0-2.581z" transform="translate(-104 -5876) translate(104 5876) translate(22.62 38.26)"/>
                    <path fill="#4D4C4C" d="M127.049 132.004c-7.768.097-15.533.132-23.297.103-7.763-.029-15.529-.124-23.296-.287-4.34-.086-8.678-.193-13.017-.32-.926-.03-.923 1.404 0 1.433 7.754.226 15.508.389 23.262.49 7.754.102 15.52.14 23.296.115 4.353-.017 8.703-.053 13.052-.106.926 0 .926-1.434 0-1.434v.006z" transform="translate(-104 -5876) translate(104 5876) translate(22.62 38.26)"/>
                    <path fill="#4D4C4C" d="M146.313 106.72c-4.586 6.949-9.666 13.561-15.2 19.786-1.548 1.742-3.132 3.448-4.754 5.12-.642.662.373 1.677 1.018 1.012 5.831-6.032 11.214-12.48 16.106-19.292 1.398-1.944 2.757-3.916 4.078-5.916.512-.771-.733-1.49-1.24-.722l-.008.011zM54.839 109.965c2.602 6.114 6.56 11.471 9.591 17.373.852 1.658 1.644 3.344 2.376 5.059.201.34.64.456.984.258.335-.206.449-.638.258-.981-1.302-3.045-2.795-6.005-4.469-8.864-1.685-2.885-3.503-5.69-5.096-8.626-.863-1.612-1.686-3.255-2.405-4.941-.2-.341-.64-.456-.983-.258-.335.206-.447.638-.256.98z" transform="translate(-104 -5876) translate(104 5876) translate(22.62 38.26)"/>
                    <path fill="#4D4C4C" d="M128.85 129.793c.183.545.428 1.067.73 1.557.256.39.592.691.863 1.058.27.367.322.96.414 1.434.112.571.28 1.13.503 1.669.434 1.081.978 2.116 1.473 3.154.535 1.148 1.052 2.272 1.561 3.413.576 1.32 1.143 2.646 1.703 3.98.115.374.503.593.883.5.38-.108.605-.5.503-.88-.981-2.375-2.012-4.729-3.092-7.061-.494-1.064-1.03-2.114-1.51-3.186-.223-.496-.403-1.01-.537-1.537-.088-.548-.205-1.091-.351-1.626-.216-.574-.607-.938-.984-1.397-.344-.447-.609-.95-.782-1.485-.113-.376-.502-.596-.883-.5-.187.054-.345.18-.438.35-.093.17-.114.371-.057.557zM65.184 127.28c-1.867.77-3.543 1.856-5.191 3.009-.774.542-1.597 1.055-2.301 1.669-.345.302-.637.66-.863 1.058-.197.419-.456.806-.768 1.147-.325.276-.668.53-1.027.76-.42.287-.828.605-1.23.926-.702.555-1.374 1.146-2.014 1.77-1.33 1.318-2.564 2.728-3.693 4.221-1.245 1.617-2.396 3.3-3.543 4.987-.163.279-.117.632.112.86l.239.192c.285.267.73.267 1.015 0 .278-.281.278-.733 0-1.015l-.239-.192.112.86c1.993-2.927 4.01-5.864 6.497-8.402 1.25-1.255 2.612-2.395 4.067-3.407.369-.241.703-.53.995-.86.287-.39.545-.8.771-1.227.452-.735 1.28-1.176 1.967-1.66 1.743-1.225 3.503-2.496 5.485-3.313.375-.116.595-.503.503-.883-.107-.381-.503-.604-.885-.5h-.01zM53.717 23.337c-.095.746-.184 1.495-.288 2.24 0-.014.046-.335.018-.126 0 .092-.023.186-.038.287-.023.163-.043.327-.066.49l-.167 1.187c-.207 1.446-.423 2.888-.647 4.328-.452 2.908-.94 5.808-1.461 8.7-1.033 5.767-2.174 11.514-3.36 17.253-.67 3.25-1.35 6.495-2.036 9.735-.192.915.268 1.982 1.254 2.206.904.203 2.014-.27 2.212-1.25 1.22-5.779 2.433-11.555 3.578-17.347 1.145-5.793 2.212-11.603 3.138-17.436.54-3.413 1.029-6.832 1.464-10.258.002-.476-.188-.932-.527-1.267-.337-.337-.794-.526-1.27-.526-.478 0-.935.19-1.272.526-.314.35-.5.798-.526 1.267l-.006-.009zM41.226 85.88c.13 2.148.284 4.295.46 6.44.078.932.771 1.839 1.798 1.793.906-.04 1.88-.792 1.797-1.793-.178-2.145-.331-4.292-.46-6.44-.057-.935-.788-1.839-1.797-1.793-.927.043-1.858.792-1.798 1.792zM53.677 106.002c-1.302-1.372-2.564-2.785-3.785-4.238-.597-.71-1.181-1.427-1.755-2.154-.152-.192-.316-.384-.457-.573.132.186.115.149 0 0l-.207-.27c-.288-.396-.598-.792-.895-1.19-.246-.394-.627-.687-1.072-.823-.468-.126-.967-.061-1.387.18-.747.48-1.24 1.644-.644 2.452 2.367 3.212 4.927 6.276 7.668 9.177.706.69 1.836.69 2.542 0 .684-.707.684-1.827 0-2.535l-.008-.026zM134.601 92.435c-.143-3.336-.3-6.67-.471-10.003-.087-1.678-.176-3.355-.268-5.03 0-.499-.045-.996-.132-1.488-.157-.545-.454-1.04-.863-1.434-.575-.634-1.155-1.267-1.74-1.898l-1.933-2.108-.917-1.004-.483-.524c-.08-.09-.158-.181-.242-.264-.267-.27.161.23.181.335v.955l.018-.063-2.212 1.25.049.015c.928.196 1.85-.362 2.103-1.274.254-.912-.246-1.863-1.143-2.173h-.049c-.955-.25-1.935.305-2.211 1.25-.366 1.337.696 2.231 1.501 3.109l1.74 1.895 1.691 1.847.82.895c.138.152.27.312.417.456.147.143-.23-.324-.11-.135.064.112.038.057-.08-.163-.034-.27-.046-.327-.034-.172 0 .82.092 1.663.138 2.48.046.817.089 1.7.135 2.55.086 1.67.169 3.341.247 5.012.092 1.899.179 3.798.26 5.698.04.935.796 1.836 1.797 1.793.94-.043 1.84-.789 1.797-1.793l-.006-.014z" transform="translate(-104 -5876) translate(104 5876) translate(22.62 38.26)"/>
                    <path fill="#4D4C4C" d="M45.25 68.607l.983 7.597.248 1.901c.02.152.043.304.054.459-.004.062-.004.124 0 .186.04.16.032-.129.04-.172-.028.124-.114.287.06-.094-.022.046-.14.206.015 0 .156-.207-.106.083-.172.14-.855.73-1.664 1.511-2.422 2.34-.896 1.012-1.684 2.113-2.353 3.287-.46.817-.227 2.007.645 2.451.859.484 1.948.2 2.459-.642.27-.482.56-.952.877-1.405l.244-.341c.038-.052.288-.362.113-.155-.176.206.118-.15.164-.2.1-.127.207-.253.313-.377.763-.854 1.584-1.654 2.46-2.394.69-.577 1.107-1.417 1.15-2.314-.016-.637-.086-1.271-.21-1.896l-.51-3.94-.575-4.43c-.017-.473-.204-.922-.526-1.268-.337-.337-.794-.525-1.271-.525-.477 0-.934.188-1.272.525-.344.331-.534.79-.526 1.267h.012zM125.044 68.375l-10.158 1c-1.642.161-1.66 2.742 0 2.582l10.158-1.001c1.645-.16 1.66-2.742 0-2.581z" transform="translate(-104 -5876) translate(104 5876) translate(22.62 38.26)"/>
                    <path fill="#F07F1A" d="M150.058 40.77c2.076.287 5.177.54 5.7 3.026.523 2.486 4.418 1.457 3.883-1.067-.863-4.015-4.921-5.331-8.514-5.83-1.084-.15-2.148.264-2.476 1.402-.27.935.33 2.32 1.407 2.47zM161.392 37.014c1.832 1.508 3.049 3.524 3.236 5.916.201 2.558 4.23 2.58 4.026 0-.267-3.413-1.745-6.559-4.414-8.755-1.982-1.635-4.847 1.19-2.848 2.839zM32.296 8.282l-4.553-7.204c-1.378-2.18-4.864-.166-3.477 2.028l4.553 7.218c1.377 2.18 4.863.166 3.477-2.028v-.014zM13.69 15.153l-2.28-1.514c-.878-.574-2.267-.2-2.753.72-.534.96-.216 2.17.722 2.747l2.278 1.514c.88.574 2.27.2 2.755-.72.534-.96.216-2.17-.722-2.747zM7.952 33.472l-6.465 1.113c-2.548.438-1.467 4.301 1.073 3.871l6.462-1.113c2.549-.438 1.467-4.301-1.07-3.871z" transform="translate(-104 -5876) translate(104 5876) translate(22.62 38.26)"/>
                </g>
            </g>
        </g>
    </g>
</svg>
