<?xml version="1.0" encoding="utf-8"?>
<!-- Generator: Adobe Illustrator 24.2.1, SVG Export Plug-In . SVG Version: 6.00 Build 0)  -->
<svg version="1.1" id="Layer_1" xmlns="http://www.w3.org/2000/svg" xmlns:xlink="http://www.w3.org/1999/xlink" x="0px" y="0px"
	 viewBox="0 0 116.66 28" style="enable-background:new 0 0 116.66 28;" xml:space="preserve">
<style type="text/css">
	.st0{fill:none;}
	.st1{fill:#FFFFFF;}
</style>
<rect x="-9.28" y="-9.77" class="st0" width="135.26" height="48.14"/>
<g>
	<g>
		<path class="st1" d="M40.02,11.15h-3.75c-1.22,0-1.22,0-1.47,1.42s-0.25,1.47,0.86,1.47h2.23l-1.27,7.25
			c-0.3,1.62-1.01,2.74-3.2,3.4c-0.56,0.15-0.71,0.36-0.71,0.61c0,0.3,0.1,0.56,0.36,1.17c0.36,0.86,0.56,1.01,0.86,1.01
			s0.86-0.15,1.07-0.2c3.09-1.01,4.36-3.4,4.87-6.24l1.42-8.17C41.54,11.15,41.54,11.15,40.02,11.15"/>
		<path class="st1" d="M52.75,11.15c-1.52,0-1.52,0-1.72,1.27l-1.12,6.59c-0.3,1.93-0.81,3.04-2.69,3.04
			c-1.83,0-2.49-1.12-2.18-2.84l1.07-6.29c0.3-1.78,0.25-1.78-1.32-1.78c-1.52,0-1.57,0-1.78,1.22l-1.12,6.59
			c-0.66,3.75,1.67,6.09,4.97,6.09c3.7,0,5.58-1.67,6.19-5.63l1.12-6.54C54.43,11.15,54.33,11.15,52.75,11.15"/>
		<path class="st1" d="M59.7,21.95c1.22-0.05,1.88-0.61,1.88-1.17c0-0.71-0.86-0.96-2.03-1.32c-2.28-0.71-4.36-1.52-4.36-3.96
			c0-2.89,2.38-4.46,5.38-4.46c1.27,0,2.69,0.05,3.6,0.15c0.81,0.1,1.01,0.36,0.76,1.62s-0.56,1.37-1.27,1.32
			c-0.86-0.05-1.98-0.15-3.3-0.15c-1.52,0-1.98,0.56-1.98,1.07c0,0.66,0.61,1.01,2.03,1.42c2.64,0.76,4.36,1.83,4.36,4.11
			c0,2.69-1.98,4.26-5.17,4.36c-1.72,0.05-3.25-0.05-4.57-0.25c-1.01-0.15-1.07-0.15-0.81-1.62c0.25-1.32,0.25-1.42,1.22-1.32
			C57.32,21.95,58.49,22,59.7,21.95"/>
		<path class="st1" d="M76.29,11.15h-8.57c-1.22,0-1.22,0-1.47,1.47s-0.2,1.47,0.86,1.47h2.79l-1.57,9.08
			c-0.3,1.78-0.25,1.78,1.32,1.78c1.47,0,1.52,0,1.72-1.27l1.62-9.59h2.69c1.22,0,1.22,0,1.47-1.47S77.41,11.15,76.29,11.15"/>
		<path class="st1" d="M91.41,14.04c1.22,0,1.22,0,1.47-1.47s0.25-1.47-0.86-1.47h-6.14c-2.18,0-2.13,0-2.49,2.18l-1.57,9.18
			c-0.41,2.38-0.36,2.38,1.83,2.38h5.99c1.27,0,1.22,0,1.47-1.42c0.25-1.47,0.25-1.47-0.86-1.47h-5.17l0.41-2.64h4.31
			c1.17,0,1.17,0,1.37-1.37c0.2-1.42,0.2-1.42-1.37-1.42h-3.8l0.41-2.49L91.41,14.04z"/>
		<path class="st1" d="M97.9,18.91l1.98-4.36c0.15-0.36,0.15-0.36,0.41-0.36s0.25,0,0.3,0.41l0.61,4.31H97.9z M103.28,12.82
			c-0.3-1.72-0.3-1.72-2.74-1.72c-2.28,0-2.23,0-2.94,1.42l-5.12,10.7c-0.76,1.52-0.61,1.67,1.27,1.67c1.47,0,1.47,0,2.08-1.37
			l0.81-1.83h4.97l0.25,1.83c0.2,1.37,0.25,1.37,1.72,1.37c1.67,0,1.83-0.1,1.52-1.78L103.28,12.82z"/>
		<path class="st1" d="M115.4,11.15h-8.62c-1.22,0-1.22,0-1.47,1.47s-0.2,1.47,0.86,1.47h2.79l-1.57,9.08
			c-0.3,1.78-0.25,1.78,1.32,1.78c1.47,0,1.52,0,1.72-1.27l1.62-9.59h2.69c1.22,0,1.22,0,1.47-1.47
			C116.52,11.15,116.52,11.15,115.4,11.15"/>
	</g>
	<path id="House_1_" class="st1" d="M27.59,13.61c-0.9-1.51-1.9-2.96-2.99-4.35l-0.03-0.03l-0.01-0.01
		c-0.05-0.07-0.2-0.24-0.25-0.31c-0.5-0.68-1.08-6.11-1.14-6.51c-0.08-0.47-0.22-0.96-0.9-1.04c-0.55-0.06-1.38-0.15-2.28-0.2
		c-0.42-0.02-0.64,0.2-0.75,0.41c-0.08,0.14-0.11,0.3-0.11,0.46c-0.01,0.7,0,1.04,0,1.12c0,0.01,0,0.02,0,0.03
		c-0.01,0.05-0.04,0.09-0.07,0.12c-0.08,0.06-0.19,0.06-0.27,0c-0.43-0.33-2.67-2.03-3.91-2.8c-0.06-0.03-0.12-0.07-0.18-0.09
		c-0.45-0.2-0.98-0.21-1.41,0.04c-0.03,0.02-0.06,0.04-0.09,0.06C12.78,0.76,5.79,4.73,0.5,13.57c0,0-0.33,0.46-0.08,0.89
		c0.24,0.5,2.55,0.64,2.92,0.68c0.42,0.04,0.41,0.39,0.41,0.39c0.04,3.63,0.11,5.39,0.7,11.53c0,0,0.1,0.64,0.73,0.67
		c0.26,0.01,1.21-0.04,3.75-0.1c0.1,0.01,0.18-0.06,0.19-0.16c0-0.01,0-0.03,0-0.04c-0.24-2.51-0.32-4.68-0.33-4.81
		c-0.01-0.09-0.09-0.22-0.17-0.26c-0.94-0.54-1.49-1.47-1.5-2.55c-0.07-4.97,0.23-8.78,0.23-8.78s0.03-0.53,0.49-0.49
		c0.46,0.04,0.43,0.56,0.43,0.56c-0.17,2.14-0.23,6-0.23,6s0,0.73,0.7,0.73c0.7,0,0.7-0.73,0.7-0.73c-0.02-3.02,0.23-6.05,0.23-6.05
		s0-0.51,0.5-0.51c0.27,0,0.37,0.19,0.41,0.33c0.02,0.08,0.03,0.16,0.02,0.25c-0.21,2.61-0.23,5.98-0.23,5.98s0,0.73,0.7,0.73
		c0.7,0,0.7-0.79,0.7-0.79c-0.01-2.5,0.23-5.99,0.23-5.99c0.02-0.27,0.16-0.51,0.49-0.51c0.41,0.01,0.45,0.41,0.44,0.51
		c-0.22,2.72-0.23,6.88-0.22,8.66c0.03,1.07-0.51,2.08-1.43,2.64c-0.08,0.06-0.13,0.16-0.12,0.26c0.06,1.65,0.2,3.48,0.32,4.8
		c0.01,0.09,0.07,0.16,0.16,0.17c0.7,0,2.05-0.01,2.89-0.01c1.36,0,1.9,0.01,2.89,0.02c0.11,0,0.17-0.08,0.17-0.2
		c0.26-2.38,0.35-4.1,0.36-4.25c0.02-0.17-0.19-0.2-0.19-0.2c-0.31-0.04-1.04-0.13-1.66-0.23c-0.62-0.1-0.64-0.81-0.64-0.81
		c-0.52-7.42,3.39-12.04,3.39-12.04s0.39-0.51,0.93-0.31c0.48,0.18,0.6,1.55,0.61,1.63c0.52,6.14-0.07,13.3-0.41,16.22
		c-0.01,0.12,0.04,0.21,0.15,0.24c0.13,0.02,2.48,0.1,2.7,0.08c0.38-0.04,0.69-0.33,0.75-0.71c0.83-5.74,0.71-11.51,0.71-11.51
		c0.02-0.21,0.18-0.37,0.39-0.39l2.25-0.24c0.3-0.04,0.55-0.16,0.68-0.41C27.76,14.2,27.75,13.87,27.59,13.61"/>
</g>
</svg>
