<svg xmlns="http://www.w3.org/2000/svg" viewBox="0 0 254.46 61.39"><defs><style>.cls-1{fill:#fff;}</style></defs><g data-name="Layer 2"><g id="Layer_1-2" data-name="Layer 1"><g id="TakeawayCOM_Full_Colour" data-name="TakeawayCOM Full Colour"><g id="House"><path class="cls-1" d="M28.6.59a3.54,3.54,0,0,1,3.92,0,86.74,86.74,0,0,1,8.66,6.24s.75.52.77-.37a13.66,13.66,0,0,1,.19-3.4,1.53,1.53,0,0,1,1.45-1s3.4.17,5.56.46a2.09,2.09,0,0,1,1.77,1.91s1.39,9.27,1.7,12.61c0,0,.28,1.7,2.74,4.58,0,0,5,7,5.57,8.34,0,0,1.17,2.42-1.33,2.74,0,0-4.57.46-5,.57a1.13,1.13,0,0,0-1,1.23v0s-.24,16.1-1.41,23.85c0,0-.31,3.07-2,3,0,0-4.68-.16-5.77-.12,0,0-.48,0-.4-.63,0,0,2.38-25.12.76-37.82,0,0-.06-1.64-1.32-2,0,0-1.13-.46-2.22,1A39.85,39.85,0,0,0,33.78,44.5s-.14,4,.47,5c0,0,.38.7,2.32.86l2.46.33s.46,0,.42.6c0,0-.57,7.37-.73,8.68a2.42,2.42,0,0,1-.18.87s-.09.25-.86.22c0,0-10.83-.08-12,0,0,0-.51,0-.62-.27s-.76-9.51-.73-10.82a.68.68,0,0,1,.37-.65,6.49,6.49,0,0,0,3-4.78,25,25,0,0,0,.07-4.21s.39-14.14.49-16.4c0,0,.09-.77-.91-.92a.94.94,0,0,0-1.12.7s0,.05,0,.08-.7,9.32-.56,13c0,0,.23,2.42-1.43,2.46,0,0-1.63.25-1.7-1.76,0,0,.12-9.07.51-13.54a1,1,0,0,0-.89-1,1,1,0,0,0-1.12.82s0,.05,0,.08-.7,8.67-.57,13.25c0,0,.21,2.22-1.56,2.13,0,0-1.48.18-1.57-1.79,0,0,.41-12.41.51-13.38A1,1,0,0,0,16.92,23h-.1a1,1,0,0,0-1.08.82v.1s-.67,14.84-.57,19.2c0,0-.06,4.48,3.25,6.3a1,1,0,0,1,.49.71s.38,7.87.71,10.41c0,0,.13.61-.42.61l-8.32.22s-1.38.1-1.7-1.61A185.87,185.87,0,0,1,7.63,34.63a1.26,1.26,0,0,0-1-1.37s-4.26-.4-5.29-.65A1.77,1.77,0,0,1,.06,30.45,1.92,1.92,0,0,1,.24,30,85.79,85.79,0,0,1,28.6.59Z"/></g></g><path class="cls-1" d="M87.27,23.9H79.05c-2.67,0-2.67,0-3.22,3.11s-.56,3.22,1.89,3.22H82.6L79.83,46.11c-.67,3.56-2.23,6-7,7.44-1.22.34-1.56.78-1.56,1.34a6.89,6.89,0,0,0,.78,2.55c.78,1.89,1.22,2.22,1.89,2.22a12.41,12.41,0,0,0,2.33-.44c6.78-2.22,9.55-7.44,10.66-13.66L90,27.68c.56-3.78.56-3.78-2.77-3.78"/><path class="cls-1" d="M115.14,23.9c-3.33,0-3.33,0-3.77,2.78l-2.45,14.44c-.66,4.22-1.77,6.66-5.88,6.66s-5.44-2.44-4.78-6.22l2.33-13.77c.67-3.89.56-3.89-2.88-3.89s-3.45,0-3.89,2.67L91.38,41C89.93,49.22,95,54.33,102.26,54.33c8.11,0,12.22-3.66,13.55-12.33l2.44-14.32c.56-3.78.34-3.78-3.11-3.78"/><path class="cls-1" d="M130.36,47.56c2.66-.11,4.11-1.34,4.11-2.56,0-1.55-1.89-2.11-4.44-2.88-5-1.56-9.56-3.34-9.56-8.67,0-6.33,5.22-9.77,11.78-9.77,2.77,0,5.88.11,7.88.33,1.78.23,2.22.78,1.67,3.56s-1.22,3-2.78,2.88c-1.89-.11-4.33-.33-7.22-.33-3.33,0-4.33,1.22-4.33,2.33,0,1.45,1.33,2.22,4.44,3.11,5.78,1.67,9.55,4,9.55,9,0,5.89-4.33,9.33-11.32,9.55a54.81,54.81,0,0,1-10-.56c-2.22-.33-2.33-.33-1.78-3.55.56-2.89.56-3.11,2.67-2.89a58.63,58.63,0,0,0,9.33.45"/><path class="cls-1" d="M166.67,23.9H147.91c-2.67,0-2.67,0-3.22,3.22s-.45,3.22,1.88,3.22h6.11l-3.44,19.88c-.67,3.89-.56,3.89,2.89,3.89,3.22,0,3.33,0,3.77-2.78l3.56-21h5.88c2.67,0,2.67,0,3.22-3.22s.56-3.22-1.89-3.22"/><path class="cls-1" d="M199.77,30.23c2.67,0,2.67,0,3.22-3.22s.56-3.22-1.89-3.22H187.67c-4.78,0-4.67,0-5.45,4.78l-3.44,20.1c-.89,5.22-.78,5.22,4,5.22h13.1c2.78,0,2.67,0,3.22-3.11s.56-3.22-1.88-3.22H185.89l.89-5.78h9.44c2.55,0,2.55,0,3-3s.44-3.11-3-3.11h-8.33l.89-5.44Z"/><path class="cls-1" d="M214,40.89l4.33-9.55c.33-.77.33-.77.89-.77s.55,0,.66.88l1.34,9.44Zm11.77-13.32c-.67-3.78-.67-3.78-6-3.78-5,0-4.89,0-6.44,3.11L202.1,50.33c-1.66,3.34-1.33,3.67,2.78,3.67,3.22,0,3.22,0,4.55-3l1.78-4h10.88l.56,4c.44,3,.55,3,3.78,3,3.66,0,4-.22,3.33-3.89Z"/><path class="cls-1" d="M252.3,23.9H233.42c-2.66,0-2.66,0-3.22,3.22s-.44,3.22,1.89,3.22h6.11l-3.45,19.88c-.66,3.89-.55,3.89,2.89,3.89,3.22,0,3.33,0,3.78-2.78l3.55-21h5.89c2.66,0,2.66,0,3.22-3.22s.67-3.22-1.78-3.22"/></g></g></svg>
