<?xml version="1.0" encoding="UTF-8"?>
<svg width="24px" height="24px" viewBox="0 0 24 24" version="1.1" xmlns="http://www.w3.org/2000/svg" xmlns:xlink="http://www.w3.org/1999/xlink">
    <title>Icons/24x24/Flag/Luxembourg</title>
    <g id="Icons/24x24/Flag/Luxembourg" stroke="none" stroke-width="1" fill="none" fill-rule="evenodd">
        <circle id="Oval" fill="#FFFFFF" cx="12" cy="12" r="12"></circle>
        <g id="flag-luxembourg" fill-rule="nonzero">
            <path d="M0,12.0014335 C0,5.38430295 5.38207885,0 12,0 C18.6179211,0 24,5.38430295 24,12.0014335 C24,18.6185641 18.6179211,24 12,24 C5.38207885,24 0,18.6185641 0,12.0014335 Z M23.0021505,12.0014335 C23.0021505,5.93477482 18.0673835,1.0005973 12,1.0005973 C5.93261649,1.0005973 0.997849462,5.93477482 0.997849462,12.0014335 C0.997849462,18.0680922 5.93261649,23.0022697 12,23.0022697 C18.0673835,23.0022697 23.0021505,18.0680922 23.0021505,12.0014335 L23.0021505,12.0014335 Z" id="Border" fill="#EFF3F5"></path>
            <g id="Flag" transform="translate(2.999283, 3.000000)">
                <path d="M-2.66453526e-14,8.98997613 C-2.66453526e-14,10.0210024 0.174910394,11.0434368 0.521863799,12.0114558 L17.4795699,12.0114558 C18.1706093,10.0668258 18.1763441,7.94463007 17.488172,5.99713604 L0.510394265,5.99713604 C0.172043011,6.95942721 -2.66453526e-14,7.97040573 -2.66453526e-14,8.98997613 Z" id="Path" fill="#FFFFFF"></path>
                <path d="M9.00071685,17.9799523 C12.9089606,17.9799523 16.2379928,15.4911695 17.4795699,12.0114558 L0.521863799,12.0114558 C1.76344086,15.4911695 5.08960573,17.9799523 9.00071685,17.9799523 Z" id="Path" fill="#4C9FD7"></path>
                <path d="M9.00071685,3.46389584e-14 C5.08100358,3.46389584e-14 1.74623656,2.50310263 0.510394265,5.99713604 L17.488172,5.99713604 C16.2551971,2.50310263 12.9204301,3.46389584e-14 9.00071685,3.46389584e-14 Z" id="Path" fill="#DA1E39"></path>
            </g>
        </g>
    </g>
</svg>