<?xml version="1.0" encoding="UTF-8"?>
<svg width="24px" height="24px" viewBox="0 0 24 24" version="1.1" xmlns="http://www.w3.org/2000/svg" xmlns:xlink="http://www.w3.org/1999/xlink">
    <title>language-select/flag-icon</title>
    <g id="Symbols" stroke="none" stroke-width="1" fill="none" fill-rule="evenodd">
        <g id="Side-Nav/Opened" transform="translate(-16.000000, -784.000000)" fill-rule="nonzero">
            <g id="flag-norway" transform="translate(16.000000, 784.000000)">
                <circle id="Oval" fill="#FFFFFF" cx="12" cy="12" r="12"></circle>
                <path d="M11.9992832,24.0014336 C5.3823308,24.0014336 0,18.6176692 0,12.0007168 C0,5.38376441 5.3823308,7.10542736e-15 11.9992832,7.10542736e-15 C18.6162356,7.10542736e-15 24,5.38376441 24,12.0007168 C24,18.6176692 18.6165223,24.0014336 11.9992832,24.0014336 Z M11.9992832,1.00008363 C5.93512932,1.00008363 0.998650021,5.9348426 0.998650021,12.0007168 C0.998650021,18.066591 5.93512932,23.00135 11.9992832,23.00135 C18.0634371,23.00135 22.9999164,18.066591 22.9999164,12.0007168 C22.9999164,5.9348426 18.0651574,1.00008363 11.9992832,1.00008363 Z" id="Border" fill="#EFF3F5"></path>
                <path d="M12.6368391,20.9778173 L12.6358915,14.7491827 L20.5722031,14.7497169 C19.4721476,18.1819003 16.3679746,20.7169854 12.6368391,20.9778173 Z M7.18089146,14.7491827 L7.18115576,19.6025904 C5.42164416,18.4850035 4.0764935,16.7734148 3.42789146,14.7500118 L7.18089146,14.7491827 Z M7.18115576,4.3974096 L7.18089146,9.24918275 L3.42821287,9.24898569 C4.07693782,7.22601988 5.42193475,5.51481189 7.18115576,4.3974096 Z M12.6368391,3.02218275 C16.367614,3.28298935 19.4715476,5.81760971 20.5718841,9.24928802 L12.6358915,9.24918275 L12.6368391,3.02218275 Z" id="Shape" fill="#BA0C2F"></path>
                <path d="M12,3 C12.2141082,3 12.4264702,3.00747653 12.6368391,3.02218275 L12.636,9.249 L20.5718374,9.24914256 C20.8498761,10.1162257 21,11.0405812 21,12 C21,12.959122 20.849969,13.8832024 20.5720954,14.7500528 L12.636,14.75 L12.6368391,20.9778173 C12.4264702,20.9925235 12.2141082,21 12,21 C10.2269124,21 8.57358058,20.4872641 7.18018759,19.6019754 L7.18,14.75 L3.42790459,14.7500528 C3.150031,13.8832024 3,12.959122 3,12 C3,11.0405812 3.15012386,10.1162257 3.42816257,9.24914256 L7.18,9.249 L7.18018759,4.39802464 C8.57358058,3.51273585 10.2269124,3 12,3 Z" id="Path" fill="#FFFFFF"></path>
                <path d="M20.8956073,10.6248648 C20.9643456,11.073202 21,11.5324372 21,12 C21,12.4678177 20.9643067,12.9272987 20.8954949,13.3758684 L3.10450511,13.3758684 C3.03569328,12.9272987 3,12.4678177 3,12 C3,11.5324372 3.0356544,11.073202 3.10439266,10.6248648 L20.8956073,10.6248648 Z" id="Path" fill="#00205B"></path>
                <path d="M11.2724142,3.02898421 L11.2724142,20.9710158 C10.3128272,20.8942494 9.39568246,20.666968 8.54460131,20.3127931 L8.54460131,3.68720691 C9.39568246,3.33303199 10.3128272,3.10575064 11.2724142,3.02898421 Z" id="Path" fill="#00205B"></path>
            </g>
        </g>
    </g>
</svg>