<?xml version="1.0" encoding="UTF-8"?>
<svg width="24px" height="24px" viewBox="0 0 24 24" version="1.1" xmlns="http://www.w3.org/2000/svg" xmlns:xlink="http://www.w3.org/1999/xlink">
    <title>Icon / 24x24 / Flag / UK</title>
    <g id="Symbols" stroke="none" stroke-width="1" fill="none" fill-rule="evenodd">
        <g id="1---LP-Header-Brand" transform="translate(-1392.000000, -24.000000)">
            <g id="Group" transform="translate(1392.000000, 24.000000)">
                <circle id="Oval" fill="#FFFFFF" cx="12" cy="12" r="12"></circle>
                <g id="flag-france" fill-rule="nonzero">
                    <path d="M11.9992832,24.0014336 C5.3823308,24.0014336 0,18.6176692 0,12.0007168 C0,5.38376441 5.3823308,8.8817842e-15 11.9992832,8.8817842e-15 C18.6162356,8.8817842e-15 24,5.38376441 24,12.0007168 C24,18.6176692 18.6162356,24.0014336 11.9992832,24.0014336 Z M11.9992832,1.00008363 C5.933409,1.00008363 0.998650021,5.9348426 0.998650021,12.0007168 C0.998650021,18.066591 5.933409,23.00135 11.9992832,23.00135 C18.0651574,23.00135 22.9999164,18.066591 22.9999164,12.0007168 C22.9999164,5.9348426 18.0648707,1.00008363 11.9992832,1.00008363 Z" id="Border" fill="#EFF3F5"></path>
                    <g id="Flag" transform="translate(2.995418, 3.000000)">
                        <path d="M8.99026253,-3.19744231e-14 C7.60405924,-0.00176004445 6.23638727,0.318441864 4.9950358,0.935377205 L4.9950358,17.0454488 C7.51259731,18.2923066 10.4679278,18.2923066 12.9854893,17.0454488 L12.9854893,0.935377205 C11.74412,0.318491315 10.3764598,-0.00170782905 8.99026253,-3.19744231e-14 L8.99026253,-3.19744231e-14 Z" id="Path" fill="#FDD216"></path>
                        <path d="M12.9854893,0.935377205 L12.9854893,17.0454488 C15.9453938,15.5742316 17.9799523,12.5203891 17.9799523,8.99026981 C17.9799523,5.46015047 15.9459666,2.40659439 12.9854893,0.935377205 Z" id="Path" fill="#CF1126"></path>
                        <path d="M6.66133815e-15,8.99026981 C6.66133815e-15,12.5201027 2.03341289,15.5742316 4.9947494,17.0454488 L4.9947494,0.935377205 C2.03455847,2.40659439 6.66133815e-15,5.46072327 6.66133815e-15,8.99026981 Z" id="Path" fill="#002B7F"></path>
                    </g>
                </g>
            </g>
        </g>
    </g>
</svg>