<svg xmlns="http://www.w3.org/2000/svg" xmlns:xlink="http://www.w3.org/1999/xlink" width="143" height="120" xmlns:v="https://vecta.io/nano"><path d="M11.78 97.955L83.066 62.27.048.513z" fill="#fdd8b3"/><path d="M107.348 19.326l-7.046 37.691-7.757 44.629-2.616 16.58c-.22 1.524 2.12 2.184 2.336.643 1.636-11.67 3.719-23.28 5.725-34.888l8.138-45.413 3.565-18.599c.308-1.521-2.026-2.173-2.336-.643h-.009zm-33.081 0l-7.046 37.691-7.757 44.629-2.616 16.58c-.22 1.524 2.12 2.184 2.336.643 1.636-11.67 3.719-23.28 5.725-34.888l8.127-45.413 3.565-18.599c.308-1.521-2.026-2.173-2.336-.643h.002zm63.043 0l-7.046 37.691-7.757 44.629-2.616 16.58c-.22 1.524 2.12 2.184 2.336.643 1.636-11.67 3.719-23.28 5.725-34.888l8.12-45.413 3.565-18.599c.308-1.521-2.026-2.173-2.336-.643h.009z" fill="#bdbdbf"/><path d="M58.238 63.776c-4.144 1.828-2.202 9.16-2.202 9.16l19.907.634s5.828-6.489 1.689-8.721c-4.272-2.305-19.394-1.072-19.394-1.072z" fill="#f07f1a"/><path d="M120.614 58.432c-.63.328-2.202 9.162-2.202 9.162l19.907.632 2.933-8.708-20.638-1.086z" fill="#fab62e"/><path d="M85.094 87.362c-.628.328-3.681 7.332-2.202 9.162 3.138 3.866 19.909.632 19.909.632s3.052-6.969 1.687-8.721c-2.983-3.829-19.394-1.072-19.394-1.072z" fill="#54af35"/><g fill="#4d4c4c"><path d="M75.727 72.192c-6.44-.169-12.881-.238-19.323-.207-1.559 0-1.561 2.411 0 2.422h.614c1.55.015 1.55-2.407.009-2.407h-.614v2.422a605.7 605.7 0 0 1 19.323.207c1.559.042 1.559-2.38 0-2.422l-.009-.015zm1.614-9.686a605.7 605.7 0 0 0-19.323-.207c-1.559 0-1.561 2.411 0 2.422h.612c1.559.011 1.561-2.411 0-2.422h-.612v2.422a616.15 616.15 0 0 1 19.323.207c1.559.04 1.559-2.382 0-2.422zm25.112 33.589c-6.44-.169-12.881-.238-19.323-.207-1.559 0-1.561 2.422 0 2.422h.614c1.559.013 1.559-2.409 0-2.422h-.614v2.422a622.31 622.31 0 0 1 19.323.207c1.559.042 1.559-2.38 0-2.422zm1.614-9.686c-6.44-.17-12.881-.239-19.323-.207-1.559 0-1.561 2.422 0 2.422h.612c1.559.011 1.561-2.411 0-2.422h-.612v2.422a616.15 616.15 0 0 1 19.323.207c1.559.042 1.559-2.38 0-2.422z"/><use xlink:href="#B"/><use xlink:href="#B" x="1.614" y="-9.686"/></g><path d="M76.984 18.436h-2.926c-1.559 0-1.561 2.422 0 2.422h2.926c1.559 0 1.561-2.422 0-2.422zm33.327 0h-3.686c-1.559 0-1.561 2.422 0 2.422h3.686c1.559 0 1.561-2.422 0-2.422zm30.033 0h-3.743c-1.559 0-1.561 2.422 0 2.422h3.743c1.557 0 1.561-2.422 0-2.422zm-80.591 98.9h-3.651c-1.559 0-1.561 2.422 0 2.422h3.651c1.559 0 1.561-2.422 0-2.422zm32.618.242h-3.034c-1.559 0-1.561 2.422 0 2.422h3.034c1.559 0 1.561-2.422 0-2.422zm30.502 0h-4.144c-1.559 0-1.561 2.422 0 2.422h4.144c1.559 0 1.561-2.422 0-2.422h0z" fill="#bdbdbf"/><path d="M36.821 22.357c-.11 1.178 1.982 11.89-1.237 14.169S16.427 58.069 18.995 63.283c1.407 2.862-15.814 18.44-12.418 23.43 1.687 2.477 16.582 19.108 24.982 16.97 2.369-.603 5.179-18.495 7.427-18.643 12.722-.762 16.439 1.863 19.453-3.554s3.765-13.086-3.963-10.932-13.431-3.138-12.967-6.363 6.654-11.872 12.991-9.774 7.246 4.239 7.134 7.629 6.502 5.472 8.884 0 4.943-8.512.936-12.068-4.967-5.725-9.726-8.466 3.829-5.201 5.313-9.028 7.002-12.689 5.119-15.899-2.713-5.681-4.652-4.228-9.162 8.966-9.162 8.966l-4.331 5.456s3.47-15.006-.945-15.413-5.85 2.123-5.85 2.123l-2.807 9.028-1.665 3.756s-.026-5.417-3.811-5.02-2.116 1.105-2.116 1.105z" fill="#cf816f"/><g fill="#4d4c4c"><path d="M44.673 64.338c-.619-.751-1.83-2.202-.92-3.16 1.466-1.541-.865-3.877-2.336-2.336-2.365 2.481-.936 5.582.92 7.83.572.694 1.742.581 2.336 0 .687-.672.564-1.651 0-2.334h0z"/><path d="M38.772 66.308c1.909-2.763 4.476-5 7.127-7.035 1.266-.969 2.55-2.083 3.963-2.843s3.201-.553 4.743-.284c1.458.251 2.924.72 3.963 1.828.385.414.881 1.063.914 1.647s-.348 1.29-.44 1.902a4.72 4.72 0 0 0 .661 3.257c.694 1.052 1.982 1.579 3.054 2.118 1.898.947 3.571-1.902 1.667-2.851-.645-.321-1.42-.612-1.982-1.079.161.134-.128-.22.029.022-.088-.165-.097-.174-.031-.029a3.17 3.17 0 0 1-.101-.346c-.103-.678.176-1.231.324-1.889.204-.935.111-1.91-.266-2.79-1.407-3.49-5.009-4.82-8.486-5.192-1.982-.209-3.913-.148-5.698.841-1.513.839-2.887 2.021-4.256 3.083-3.023 2.325-5.833 4.844-8.012 7.99-1.211 1.761 1.651 3.406 2.851 1.667l-.022-.018z"/><path d="M60.354 65.978c3.303 2.028 7.77 1.684 10.28-1.372 1.306-1.59 2.202-3.45 2.939-5.357s.685-3.952.339-5.945c-.354-2.057-.951-4.285-2.103-6.046-1.072-1.643-2.514-2.959-4.076-4.126a26.45 26.45 0 0 0-10.161-4.573c-4.117-.881-8.495-.775-12.277 1.229-1.878.993-.22 3.847 1.667 2.851 5.159-2.73 11.89-.98 16.666 1.75 2.642 1.508 5.306 3.543 6.271 6.544.513 1.599.967 3.259.975 4.948 0 1.515-.577 2.862-1.246 4.194s-1.59 3.098-3.102 3.651c-1.451.531-3.219.2-4.505-.59-1.817-1.119-3.477 1.737-1.667 2.851v-.009zm-18.352.266c1.724 2.953 4.087 5.687 7.684 6.064 1.662.174 3.719-.601 5.284.075 1.303.568 2.422 1.808 3.221 2.948 1.207 1.731 4.071.084 2.851-1.667a14.31 14.31 0 0 0-3.356-3.481c-1.488-1.07-2.99-1.387-4.804-1.284s-3.523.412-5.084-.702c-1.281-.909-2.164-2.286-2.944-3.62-1.07-1.834-3.926-.174-2.851 1.667h-.002z"/><path d="M57.703 74.862c1.671 2.202.385 5.199-1.594 6.735-2.528 1.966-6.059 2.396-9.157 2.523-6.044.251-12.467-1.196-16.622-5.881-1.414-1.592-3.743.751-2.336 2.336 3.941 4.443 9.792 6.427 15.587 6.81 5.641.372 13.07-.308 16.602-5.35 1.761-2.517 2.332-6.269.372-8.84-.546-.713-1.418-1.072-2.259-.592-.705.401-1.134 1.552-.592 2.259h0zm-19.376-38.03c1.464-1.625 2.567-3.635 3.664-5.505l3.829-7.182c1.321-2.862 1.68-5.945 2.521-8.972.205-.74.868-3.714 2.114-3.023 1.207.661 1.713 2.726 1.982 3.946.777 3.4.628 7.513-.755 10.749-.352.826-.24 1.761.592 2.259.691.414 1.909.22 2.259-.592 1.554-3.633 1.927-7.726 1.385-11.623-.44-3.197-2.301-9.074-6.634-8.085-2.063.471-3.153 2.453-3.781 4.307-.795 2.347-1.156 4.818-1.761 7.215-.575 2.303-1.944 4.553-3.177 6.793a104.98 104.98 0 0 1-2.66 4.569 50.67 50.67 0 0 1-1.147 1.775 19.36 19.36 0 0 1-.533.751c.077-.103-.073.097-.251.293-1.418 1.577.909 3.919 2.336 2.336l.018-.009z"/><path d="M35.733 34.641c-3.523 4.131-7.013 8.301-10.236 12.676-1.568 2.127-3.069 4.305-4.47 6.548s-2.587 4.556-2.95 7.198c-.123.881.22 1.761 1.154 2.032.768.22 1.909-.271 2.03-1.154.341-2.466 1.42-4.498 2.726-6.581 1.37-2.182 2.834-4.302 4.362-6.385 3.056-4.148 6.385-8.092 9.719-12.009 1.374-1.607-.953-3.963-2.334-2.334v.009zm11.309-.292c7.046-3.6 11.45-10.474 15.853-16.756 1.044-1.486 2.059-3.349 3.488-4.501.405-.326 1.196-.806 1.689-.379.63.544.828 2.171 1.039 2.935.676 2.422.678 4.562-.196 6.927-.716 1.935-1.678 3.811-2.592 5.661-1.962 3.963-4.316 7.566-7.618 10.549-1.581 1.429.762 3.759 2.336 2.336 3.316-2.994 5.817-6.639 7.828-10.608 2.279-4.498 4.833-9.138 3.778-14.325-.423-2.072-1.002-5.143-2.935-6.359-2.015-1.266-4.509-.264-6.031 1.277-1.552 1.574-2.768 3.576-4.032 5.381l-3.774 5.311c-2.862 3.855-6.165 7.486-10.503 9.699-1.894.967-.22 3.818 1.667 2.851h.002z"/><path d="M35.969 39.516c1.632-3.635 3.177-7.568 2.862-11.632-.081-1.041-.313-2.054-.473-3.083-.069-.394-.108-.793-.117-1.193a3.76 3.76 0 0 1 .051-.779c.156-.381.055-.374-.308.02.018-.273 1.42.603 1.51.683a3.56 3.56 0 0 1 1.077 1.933c.489 2.068 3.673 1.193 3.184-.881a6.66 6.66 0 0 0-3.917-4.661c-2.321-.951-4.498.11-4.829 2.642-.335 2.585.764 5.102.489 7.72s-1.299 5.166-2.371 7.554c-.368.821-.22 1.761.592 2.259.702.421 1.896.22 2.259-.592l-.009.011zM18.31 59.802A224.42 224.42 0 0 0 4.542 85.356c-.374.817-.22 1.761.592 2.261.707.423 1.889.22 2.259-.592 4.034-8.806 8.633-17.342 13.768-25.554 1.13-1.808-1.726-3.468-2.862-1.669h.011zm17.524 26.147a239.26 239.26 0 0 0-5.038 17.082c-.524 2.061 2.66 2.939 3.186.881a240.33 240.33 0 0 1 5.038-17.08c.678-2.021-2.51-2.887-3.186-.881v-.002zm40.82-11.404c2.365-1.486 4.276-3.717 4.503-6.606.205-2.629-1.387-5.179-4.109-5.469-1.541-.165-1.541 2.259 0 2.422 1.689.181 1.878 2.523 1.541 3.763-.451 1.671-1.737 2.9-3.16 3.794-1.321.826-.103 2.922 1.222 2.092l.002.004z"/><path d="M103.325 88.36c2.052 2.706.377 5.852-1.828 7.836-1.163 1.046.555 2.754 1.711 1.713 2.95-2.655 4.899-7.224 2.202-10.774-.931-1.224-3.034-.02-2.092 1.224h.007zm-19.266-1.628c-1.885 1.213-2.669 3.204-2.902 5.364-.22 2.096-.247 4.688 1.876 5.822 1.374.735 2.6-1.354 1.222-2.09-1.165-.623-.81-2.688-.661-3.772.163-1.253.586-2.519 1.693-3.232 1.306-.841.095-2.939-1.222-2.092h-.007zm55.235-27.199a4.77 4.77 0 0 1 .537 3.963 6.86 6.86 0 0 1-.826 1.781 8.29 8.29 0 0 1-.661.881l-.236.264c-.368.275-.321.348.139.22l1.169 1.541.024-.081-1.491.846.053.022c1.453.568 2.083-1.761.645-2.336l-.055-.02c-.619-.244-1.321.271-1.488.846l-.024.079c-.247.812.414 1.466 1.167 1.541.929.084 1.64-.964 2.145-1.599.686-.847 1.229-1.801 1.607-2.823a7.24 7.24 0 0 0-.619-6.335c-.834-1.321-2.931-.099-2.092 1.222l.004-.013zm-19.691-1.825c-1.678 1.365-2.345 3.501-2.713 5.557-.399 2.239-.275 4.527 1.761 5.923 1.286.881 2.499-1.213 1.222-2.092s-.72-2.948-.44-4.183c.315-1.361.779-2.6 1.889-3.503 1.209-.984-.513-2.691-1.713-1.713l-.007.011zm-62.834 4.945c-2.609 1.966-3.827 5.284-2.862 8.453.456 1.484 2.794.852 2.334-.645-.628-2.043 0-4.404 1.742-5.725 1.231-.925.024-3.03-1.222-2.09l.009.007z"/></g><path d="M47.013 1.268a9.25 9.25 0 0 0-6.865 5.135c-.901 1.913 1.946 3.591 2.862 1.667a6.24 6.24 0 0 1 4.888-3.618c.881-.132 1.374-1.246 1.154-2.03-.264-.945-1.143-1.288-2.03-1.154h-.009zM36.162.377c-1.541.98-2.371 2.455-2.605 4.234-.117.881.841 1.651 1.651 1.651.989 0 1.541-.762 1.651-1.651-.035.264.09-.264.121-.359s.101-.22.022-.059a4.03 4.03 0 0 1 .203-.357l.112-.165c-.079.099.121-.121.141-.141.075-.078.155-.152.24-.22.22-.183-.295.192.13-.079.771-.472 1.032-1.469.592-2.259-.44-.749-1.504-1.074-2.259-.592V.377z" fill="#f07f1a"/><defs ><path id="B" d="M138.656 66.949a605.79 605.79 0 0 0-19.326-.207c-1.557 0-1.559 2.411 0 2.422h.614c1.559.011 1.561-2.411 0-2.422h-.614v2.422a614.66 614.66 0 0 1 19.326.207c1.559.04 1.559-2.382 0-2.422z"/></defs></svg>