<?xml version="1.0" encoding="UTF-8"?>
<svg width="174px" height="26px" viewBox="0 0 174 26" version="1.1" xmlns="http://www.w3.org/2000/svg" xmlns:xlink="http://www.w3.org/1999/xlink">
    <!-- Generator: Sketch 55.2 (78181) - https://sketchapp.com -->
    <title>Combined Shape</title>
    <desc>Created with Sketch.</desc>
    <g id="Symbols" stroke="none" stroke-width="1" fill="none" fill-rule="evenodd">
        <g id="LoginHeader-LoggedIn" transform="translate(-24.000000, -23.000000)" fill="#FFFFFF" fill-rule="nonzero">
            <path d="M35.6556695,23.2355994 C36.147124,22.9214669 36.778994,22.9214669 37.2528965,23.2355994 C38.4815326,24.0034788 39.6750649,24.8586173 40.7983893,25.7661112 C40.7983893,25.7661112 41.0967724,25.9755329 41.1143243,25.6264967 C41.1143243,25.6264967 41.0616685,24.5619366 41.1845321,24.2478041 C41.2722918,24.0034788 41.5004671,23.8289608 41.7812982,23.8289608 C41.7812982,23.8289608 43.1679018,23.898768 44.063051,24.0209306 C44.4491938,24.073286 44.7651288,24.4048704 44.7826807,24.8062619 C44.7826807,24.8062619 45.344343,28.5758519 45.4847585,29.9370927 C45.4847585,29.9370927 45.5900702,30.635165 46.608083,31.8044359 C46.608083,31.8044359 48.6441086,34.6316284 48.8898358,35.1900862 C48.8898358,35.1900862 49.3637383,36.1848391 48.3457255,36.3070018 C48.3457255,36.3070018 46.4852194,36.4989716 46.3096999,36.5338753 C46.0464208,36.5513271 45.8709013,36.7782005 45.8884533,37.0399776 C45.8884533,37.0399776 45.8884533,37.0574294 45.8884533,37.0574294 C45.8884533,37.0574294 45.7831416,43.6018565 45.3092391,46.7606333 C45.3092391,46.7606333 45.1863755,48.0171633 44.4842977,47.9822597 C44.4842977,47.9822597 42.5711357,47.9124525 42.1147852,47.9299043 C42.1147852,47.9299043 41.9217138,47.9473561 41.9568177,47.6681272 C41.9568177,47.6681272 42.9397266,37.458821 42.2727527,32.2930865 C42.2727527,32.2930865 42.2552007,31.6299179 41.7286424,31.4903034 C41.7286424,31.4903034 41.2722918,31.2983336 40.8159413,31.9091468 C40.8159413,31.9091468 37.7794548,35.748544 37.7794548,41.1237001 C37.7794548,41.1237001 37.726799,42.7641699 37.9725262,43.1655614 C37.9725262,43.1655614 38.1304937,43.4447903 38.9203312,43.5145975 L39.9207921,43.6542119 C39.9207921,43.6542119 40.1138635,43.6542119 40.0963115,43.8985372 C40.0963115,43.8985372 39.8681362,46.9002478 39.7979285,47.423802 C39.7979285,47.5459646 39.7628246,47.6681272 39.7277207,47.7728381 C39.7277207,47.7728381 39.6926168,47.8775489 39.3766818,47.8600971 C39.3766818,47.8600971 34.9535917,47.8251935 34.4445853,47.8600971 C34.4445853,47.8600971 34.233962,47.8775489 34.1813062,47.7553863 C34.1286503,47.6332236 33.8653712,43.8810854 33.8829231,43.3575312 C33.8829231,43.2528204 33.9355789,43.1481096 34.0408906,43.0957542 C34.7254165,42.659459 35.181767,41.943935 35.2695267,41.1586037 C35.2695267,41.1586037 35.3397345,40.8444712 35.2870787,39.4483268 C35.2870787,39.4483268 35.4450462,33.7066827 35.497702,32.781737 C35.497702,32.781737 35.5328059,32.4676045 35.1291112,32.4152491 C34.9184878,32.3628937 34.7254165,32.4850564 34.6727606,32.694478 C34.6727606,32.7119298 34.6727606,32.7119298 34.6727606,32.7293816 C34.6727606,32.7293816 34.3919295,36.5164234 34.4445853,38.0347305 C34.4445853,38.0347305 34.549897,39.0120316 33.8653712,39.0294835 C33.8653712,39.0294835 33.1983973,39.1341943 33.1632934,38.3139594 C33.1632934,38.3139594 33.2159492,34.6316284 33.3739167,32.7991889 C33.3739167,32.5897672 33.2159492,32.4152491 33.0053259,32.3977973 C32.7947025,32.3628937 32.5840792,32.5025082 32.5489753,32.7293816 C32.5489753,32.7468334 32.5489753,32.7468334 32.5489753,32.7642852 C32.5489753,32.7642852 32.2681442,36.28955 32.3208,38.1568932 C32.3208,38.1568932 32.4085598,39.0643871 31.6713781,39.0294835 C31.6713781,39.0294835 31.074612,39.0992907 31.0395081,38.2965076 C31.0395081,38.2965076 31.2150275,33.2529358 31.2501314,32.8515443 C31.2852353,32.6246708 31.1272678,32.4152491 30.8990925,32.3977973 C30.8815406,32.3977973 30.8639886,32.3977973 30.8639886,32.3977973 C30.6533653,32.3628937 30.4602939,32.51996 30.42519,32.7293816 C30.42519,32.7468334 30.42519,32.7468334 30.42519,32.7642852 C30.42519,32.7642852 30.1619108,38.80261 30.1970147,40.5652423 C30.1970147,40.5652423 30.1794628,42.3802301 31.5309625,43.1306578 C31.5309625,43.1306578 31.7240339,43.2528204 31.7415859,43.4273385 C31.7415859,43.4273385 31.8995534,46.6384707 32.0399689,47.6681272 C32.0399689,47.6681272 32.0926248,47.9124525 31.8644495,47.9124525 L28.4593722,47.9997115 C28.4593722,47.9997115 27.89771,48.0346152 27.7572944,47.3365429 C27.6519828,46.6908261 27.0201127,41.3505736 27.1254244,37.1097848 C27.1605283,36.8480078 26.9674569,36.6036825 26.7041777,36.5513271 C26.7041777,36.5513271 24.9665352,36.3942608 24.5452885,36.28955 C24.1591458,36.1848391 23.9309705,35.8008994 24.0187302,35.4169597 C24.0362822,35.3471525 24.0538341,35.2947971 24.088938,35.2249898 C24.071386,35.1900862 27.8450541,28.0522977 35.6556695,23.2355994 Z M57.9067591,33.7302752 L54.2828423,33.7302752 C54.1590988,33.7302752 54.0707106,33.6431193 54.0707106,33.5211009 L54.0707106,31.4293578 C54.0707106,31.3073394 54.1590988,31.2201835 54.2828423,31.2201835 L64.9071057,31.2201835 C65.0308492,31.2201835 65.1192374,31.3073394 65.1192374,31.4293578 L65.1192374,33.5211009 C65.1192374,33.6431193 65.0308492,33.7302752 64.9071057,33.7302752 L61.2831889,33.7302752 C61.1594454,33.7302752 61.0710572,33.8174312 61.0710572,33.9394495 L61.0710572,44.7990826 C61.0710572,44.9211009 60.982669,45.0082569 60.8589255,45.0082569 L58.3133449,45.0082569 C58.1896014,45.0082569 58.1012132,44.9211009 58.1012132,44.7990826 L58.1012132,33.9394495 C58.1188908,33.8174312 58.0305026,33.7302752 57.9067591,33.7302752 Z M75.6020797,45.0082569 L73.3746967,45.0082569 C73.2509532,45.0082569 73.162565,44.9211009 73.162565,44.7990826 L73.162565,43.8752294 L73.1272097,43.8752294 C72.7913345,44.293578 72.3317158,44.6422018 71.7483536,44.8862385 C71.1649913,45.1302752 70.4755633,45.2522936 69.697747,45.2522936 C68.9199307,45.2522936 68.212825,45.112844 67.5587522,44.833945 C66.9046794,44.5550459 66.3566724,44.1715596 65.8970537,43.6834862 C65.437435,43.1954128 65.0838821,42.6201835 64.8187175,41.9577982 C64.5535529,41.2954128 64.4298094,40.5807339 64.4298094,39.8137615 C64.4298094,39.0119266 64.5535529,38.2623853 64.8010399,37.5825688 C65.0485269,36.9027523 65.4020797,36.3100917 65.8616984,35.8220183 C66.3213172,35.333945 66.8693241,34.9504587 67.5233969,34.6715596 C68.159792,34.3926606 68.8845754,34.253211 69.697747,34.253211 C70.4932409,34.253211 71.182669,34.3752294 71.7660312,34.6192661 C72.3493934,34.8633028 72.8090121,35.1944954 73.1272097,35.6302752 L73.162565,35.6302752 L73.162565,34.706422 C73.162565,34.5844037 73.2509532,34.4972477 73.3746967,34.4972477 L75.6020797,34.4972477 C75.7258232,34.4972477 75.8142114,34.5844037 75.8142114,34.706422 L75.8142114,44.7642202 C75.8142114,44.9211009 75.7258232,45.0082569 75.6020797,45.0082569 Z M70.1573657,42.7073394 C70.5816291,42.7073394 70.9705373,42.6376147 71.3240901,42.4807339 C71.677643,42.3238532 71.9781629,42.1321101 72.2256499,41.853211 C72.4731369,41.5917431 72.667591,41.2779817 72.8090121,40.9119266 C72.9504333,40.5633028 73.0211438,40.1623853 73.0211438,39.7440367 C73.0211438,39.3256881 72.9504333,38.9247706 72.8090121,38.5761468 C72.667591,38.2275229 72.4731369,37.9137615 72.2256499,37.6348624 C71.9781629,37.3733945 71.677643,37.1642202 71.3240901,37.0073394 C70.9705373,36.8504587 70.5816291,36.7807339 70.1573657,36.7807339 C69.7331023,36.7807339 69.3441941,36.8504587 68.9906412,37.0073394 C68.6370884,37.1642202 68.3365685,37.3559633 68.0714038,37.6348624 C67.8062392,37.8963303 67.6117851,38.2100917 67.4880416,38.5761468 C67.3466205,38.9247706 67.2759099,39.3256881 67.2759099,39.7440367 C67.2759099,40.1623853 67.3466205,40.5633028 67.4880416,40.9119266 C67.6294627,41.2605505 67.8239168,41.5743119 68.0714038,41.853211 C68.3365685,42.1146789 68.6370884,42.3238532 68.9906412,42.4807339 C69.3441941,42.6376147 69.7331023,42.7073394 70.1573657,42.7073394 Z M80.587175,45.0082569 L78.2183709,45.0082569 C78.0946274,45.0082569 78.0062392,44.9211009 78.0062392,44.7990826 L78.0062392,30.2614679 C78.0062392,30.1394495 78.0946274,30.0522936 78.2183709,30.0522936 L80.587175,30.0522936 C80.7109185,30.0522936 80.7993068,30.1394495 80.7993068,30.2614679 L80.7993068,38.4715596 C80.7993068,38.6633028 81.0291161,38.7504587 81.1528596,38.6110092 L85.0772964,34.5844037 C85.1126516,34.5495413 85.1656846,34.5146789 85.2363951,34.5146789 L88.0294627,34.5146789 C88.2062392,34.5146789 88.312305,34.7238532 88.1885615,34.8633028 L84.2110919,38.9944954 C84.1403813,39.0642202 84.1403813,39.1862385 84.1934142,39.2559633 L88.4537262,44.659633 C88.559792,44.7990826 88.4714038,44.9908257 88.2946274,44.9908257 L85.4308492,44.9908257 C85.3601386,44.9908257 85.3071057,44.9559633 85.2717504,44.9211009 L82.2842288,41.2431193 C82.2135182,41.1385321 82.0544194,41.1385321 81.9660312,41.2256881 L80.8523397,42.3412844 C80.8169844,42.3761468 80.7993068,42.4284404 80.7993068,42.4807339 L80.7993068,44.7990826 C80.7993068,44.9211009 80.7109185,45.0082569 80.587175,45.0082569 Z M94.4641248,45.2522936 C93.562565,45.2522936 92.7670711,45.0954128 92.077643,44.7816514 C91.3882149,44.4678899 90.8048527,44.0495413 90.345234,43.5440367 C89.8856153,43.0211009 89.5320624,42.4458716 89.302253,41.7834862 C89.0724437,41.1211009 88.9663778,40.4587156 88.9663778,39.7614679 C88.9663778,39.0642202 89.0724437,38.4018349 89.302253,37.7394495 C89.5320624,37.0770642 89.85026,36.5018349 90.292201,35.9788991 C90.7341421,35.4559633 91.282149,35.0550459 91.9538995,34.7412844 C92.6256499,34.4275229 93.4211438,34.2706422 94.3227036,34.2706422 C95.2419411,34.2706422 96.037435,34.4275229 96.6915078,34.7412844 C97.3632582,35.0550459 97.9112652,35.4559633 98.3532062,35.9614679 C98.7951473,36.4669725 99.1310225,37.0422018 99.3431542,37.7045872 C99.555286,38.3669725 99.6613518,39.0293578 99.6613518,39.7266055 C99.6613518,39.8834862 99.6436742,40.0577982 99.6259965,40.2321101 C99.6083189,40.3366972 99.6083189,40.4238532 99.5906412,40.5110092 C99.5729636,40.6155963 99.4845754,40.6853211 99.3785095,40.6853211 L92.0246101,40.6853211 C91.8831889,40.6853211 91.7771231,40.8247706 91.830156,40.946789 C91.9892548,41.5045872 92.3074523,41.9229358 92.7670711,42.2541284 C93.2974003,42.6201835 93.8984402,42.8119266 94.5348354,42.8119266 C95.1005199,42.8119266 95.6131716,42.7247706 96.0727903,42.5330275 C96.4616984,42.3761468 96.779896,42.1844037 97.027383,41.9577982 C97.1157712,41.8880734 97.2395147,41.8880734 97.3279029,41.9577982 L98.7421144,43.3174312 C98.812825,43.387156 98.8305026,43.5266055 98.759792,43.5963303 C98.3355286,44.0669725 97.7875217,44.4504587 97.0804159,44.7642202 C96.3202773,45.0954128 95.4363951,45.2522936 94.4641248,45.2522936 Z M94.305026,36.606422 C93.6155979,36.606422 93.0499133,36.7807339 92.5902946,37.146789 C92.2013865,37.4605505 91.9362218,37.8788991 91.7948007,38.4192661 C91.7594454,38.5587156 91.8655113,38.6807339 91.9892548,38.6807339 L96.6031196,38.6807339 C96.7445407,38.6807339 96.8329289,38.5412844 96.7975737,38.4192661 C96.6561525,37.8788991 96.3909879,37.4431193 96.0020797,37.146789 C95.5601386,36.7807339 94.9944541,36.606422 94.305026,36.606422 Z M112.477643,45.0082569 L110.25026,45.0082569 C110.126516,45.0082569 110.038128,44.9211009 110.038128,44.7990826 L110.038128,43.8752294 L110.002773,43.8752294 C109.666898,44.293578 109.207279,44.6422018 108.623917,44.8862385 C108.040555,45.1302752 107.351127,45.2522936 106.57331,45.2522936 C105.795494,45.2522936 105.088388,45.112844 104.434315,44.833945 C103.780243,44.5550459 103.232236,44.1715596 102.772617,43.6834862 C102.312998,43.1954128 101.959445,42.6201835 101.694281,41.9577982 C101.429116,41.2954128 101.305373,40.5807339 101.305373,39.8137615 C101.305373,39.0119266 101.429116,38.2623853 101.676603,37.5825688 C101.92409,36.9027523 102.277643,36.3100917 102.737262,35.8220183 C103.19688,35.333945 103.744887,34.9504587 104.39896,34.6715596 C105.035355,34.3926606 105.760139,34.253211 106.57331,34.253211 C107.368804,34.253211 108.058232,34.3752294 108.641594,34.6192661 C109.224957,34.8633028 109.684575,35.1944954 110.002773,35.6302752 L110.038128,35.6302752 L110.038128,34.706422 C110.038128,34.5844037 110.126516,34.4972477 110.25026,34.4972477 L112.477643,34.4972477 C112.601386,34.4972477 112.689775,34.5844037 112.689775,34.706422 L112.689775,44.7642202 C112.689775,44.9211009 112.601386,45.0082569 112.477643,45.0082569 Z M107.032929,42.7073394 C107.457192,42.7073394 107.846101,42.6376147 108.199653,42.4807339 C108.553206,42.3238532 108.853726,42.1321101 109.101213,41.853211 C109.3487,41.5917431 109.543154,41.2779817 109.684575,40.9119266 C109.825997,40.5633028 109.896707,40.1623853 109.896707,39.7440367 C109.896707,39.3256881 109.825997,38.9247706 109.684575,38.5761468 C109.543154,38.2275229 109.3487,37.9137615 109.101213,37.6348624 C108.853726,37.3733945 108.553206,37.1642202 108.199653,37.0073394 C107.846101,36.8504587 107.457192,36.7807339 107.032929,36.7807339 C106.608666,36.7807339 106.219757,36.8504587 105.866205,37.0073394 C105.512652,37.1642202 105.212132,37.3559633 104.946967,37.6348624 C104.681802,37.8963303 104.487348,38.2100917 104.363605,38.5761468 C104.222184,38.9247706 104.151473,39.3256881 104.151473,39.7440367 C104.151473,40.1623853 104.222184,40.5633028 104.363605,40.9119266 C104.505026,41.2605505 104.69948,41.5743119 104.946967,41.853211 C105.212132,42.1146789 105.512652,42.3238532 105.866205,42.4807339 C106.219757,42.6376147 106.608666,42.7073394 107.032929,42.7073394 Z M114.086308,34.5321101 L116.7026,34.5321101 C116.790988,34.5321101 116.879376,34.5844037 116.897054,34.6715596 L119.17747,41.5743119 L119.212825,41.5743119 L121.35182,34.6889908 C121.387175,34.6018349 121.457886,34.5495413 121.546274,34.5495413 L124.144887,34.5495413 C124.233276,34.5495413 124.321664,34.6018349 124.339341,34.6889908 L126.531369,41.5743119 L126.566724,41.5743119 L128.84714,34.6715596 C128.882496,34.5844037 128.953206,34.5321101 129.041594,34.5321101 L131.640208,34.5321101 C131.781629,34.5321101 131.887695,34.6715596 131.834662,34.8110092 L128.122357,44.8688073 C128.087002,44.9559633 128.016291,45.0082569 127.927903,45.0082569 L125.240901,45.0082569 C125.152513,45.0082569 125.064125,44.9559633 125.046447,44.8688073 L123.031196,38.9422018 C122.960485,38.7504587 122.695321,38.7504587 122.642288,38.9422018 L120.680069,44.8688073 C120.644714,44.9559633 120.574003,45.0082569 120.485615,45.0082569 L117.798614,45.0082569 C117.710225,45.0082569 117.639515,44.9559633 117.604159,44.8688073 L113.891854,34.8110092 C113.838821,34.6715596 113.944887,34.5321101 114.086308,34.5321101 Z M143.378163,45.0082569 L141.15078,45.0082569 C141.027036,45.0082569 140.938648,44.9211009 140.938648,44.7990826 L140.938648,43.8752294 L140.903293,43.8752294 C140.567418,44.293578 140.107799,44.6422018 139.524437,44.8862385 C138.941075,45.1302752 138.251646,45.2522936 137.47383,45.2522936 C136.696014,45.2522936 135.988908,45.112844 135.334835,44.833945 C134.680763,44.5550459 134.132756,44.1715596 133.673137,43.6834862 C133.213518,43.1954128 132.859965,42.6201835 132.594801,41.9577982 C132.329636,41.2954128 132.205893,40.5807339 132.205893,39.8137615 C132.205893,39.0119266 132.329636,38.2623853 132.577123,37.5825688 C132.82461,36.9027523 133.178163,36.3100917 133.637782,35.8220183 C134.0974,35.333945 134.645407,34.9504587 135.29948,34.6715596 C135.935875,34.3926606 136.660659,34.253211 137.47383,34.253211 C138.269324,34.253211 138.958752,34.3752294 139.542114,34.6192661 C140.125477,34.8633028 140.585095,35.1944954 140.903293,35.6302752 L140.938648,35.6302752 L140.938648,34.706422 C140.938648,34.5844037 141.027036,34.4972477 141.15078,34.4972477 L143.378163,34.4972477 C143.501906,34.4972477 143.590295,34.5844037 143.590295,34.706422 L143.590295,44.7642202 C143.572617,44.9211009 143.484229,45.0082569 143.378163,45.0082569 Z M137.933449,42.7073394 C138.357712,42.7073394 138.74662,42.6376147 139.100173,42.4807339 C139.453726,42.3238532 139.754246,42.1321101 140.001733,41.853211 C140.24922,41.5917431 140.443674,41.2779817 140.585095,40.9119266 C140.726516,40.5633028 140.797227,40.1623853 140.797227,39.7440367 C140.797227,39.3256881 140.726516,38.9247706 140.585095,38.5761468 C140.443674,38.2275229 140.24922,37.9137615 140.001733,37.6348624 C139.754246,37.3733945 139.453726,37.1642202 139.100173,37.0073394 C138.74662,36.8504587 138.357712,36.7807339 137.933449,36.7807339 C137.509185,36.7807339 137.120277,36.8504587 136.766724,37.0073394 C136.413172,37.1642202 136.112652,37.3559633 135.847487,37.6348624 C135.582322,37.8963303 135.387868,38.2100917 135.264125,38.5761468 C135.122704,38.9247706 135.051993,39.3256881 135.051993,39.7440367 C135.051993,40.1623853 135.122704,40.5633028 135.264125,40.9119266 C135.405546,41.2605505 135.6,41.5743119 135.847487,41.853211 C136.112652,42.1146789 136.413172,42.3238532 136.766724,42.4807339 C137.1026,42.6376147 137.491508,42.7073394 137.933449,42.7073394 Z M147.3026,48.6513761 L148.752166,45.1477064 C148.769844,45.0954128 148.769844,45.0431193 148.752166,44.9908257 L144.615598,34.8110092 C144.562565,34.6715596 144.668631,34.5321101 144.810052,34.5321101 L147.408666,34.5321101 C147.497054,34.5321101 147.567764,34.5844037 147.60312,34.6715596 L150.290121,41.6963303 L150.325477,41.6963303 L153.012478,34.6715596 C153.047834,34.5844037 153.118544,34.5321101 153.206932,34.5321101 L155.717158,34.5321101 C155.858579,34.5321101 155.964645,34.6715596 155.911612,34.8110092 L150.219411,48.7908257 C150.184055,48.8605505 150.113345,48.912844 150.024957,48.912844 L147.514731,48.912844 C147.355633,48.9302752 147.249567,48.7733945 147.3026,48.6513761 Z M162.13913,31.1941176 C162.13913,31.0882353 162.226087,31.0176471 162.313043,31.0176471 L168.052174,31.0176471 C168.765217,31.0176471 169.426087,31.1411765 170.034783,31.3882353 C170.643478,31.6352941 171.165217,31.9705882 171.6,32.3941176 C172.034783,32.8176471 172.382609,33.3117647 172.626087,33.8941176 C172.869565,34.4764706 172.991304,35.0941176 172.991304,35.7647059 C172.991304,36.4352941 172.869565,37.0705882 172.626087,37.6352941 C172.382609,38.2176471 172.034783,38.7117647 171.6,39.1352941 C171.165217,39.5588235 170.643478,39.8941176 170.034783,40.1411765 C169.426087,40.3882353 168.765217,40.5117647 168.052174,40.5117647 L165.652174,40.5117647 C165.547826,40.5117647 165.478261,40.6 165.478261,40.6882353 L165.478261,44.7823529 C165.478261,44.8882353 165.391304,44.9588235 165.304348,44.9588235 L162.313043,44.9588235 C162.208696,44.9588235 162.13913,44.8705882 162.13913,44.7823529 L162.13913,31.1941176 Z M167.73913,37.6176471 C168.278261,37.6176471 168.713043,37.4411765 169.078261,37.1058824 C169.426087,36.7705882 169.6,36.3117647 169.6,35.7470588 C169.6,35.1823529 169.426087,34.7411765 169.078261,34.3882353 C168.730435,34.0529412 168.278261,33.8764706 167.73913,33.8764706 L165.652174,33.8764706 C165.547826,33.8764706 165.478261,33.9647059 165.478261,34.0529412 L165.478261,37.4235294 C165.478261,37.5294118 165.565217,37.6 165.652174,37.6 L167.73913,37.6 L167.73913,37.6176471 Z M185.026087,44.7823529 C185.026087,44.8882353 184.93913,44.9588235 184.852174,44.9588235 L182.243478,44.9588235 C182.13913,44.9588235 182.069565,44.8705882 182.069565,44.7823529 L182.069565,43.9352941 L182.034783,43.9352941 C181.721739,44.3588235 181.286957,44.6764706 180.747826,44.8882353 C180.191304,45.1176471 179.565217,45.2235294 178.852174,45.2235294 C178.104348,45.2235294 177.408696,45.0823529 176.782609,44.8176471 C176.156522,44.5529412 175.617391,44.1647059 175.147826,43.6882353 C174.695652,43.1941176 174.330435,42.6294118 174.069565,41.9588235 C173.808696,41.2882353 173.686957,40.5647059 173.686957,39.7882353 C173.686957,38.9411765 173.808696,38.1823529 174.052174,37.4764706 C174.295652,36.7882353 174.643478,36.1882353 175.113043,35.6764706 C175.565217,35.1823529 176.121739,34.7941176 176.747826,34.5117647 C177.391304,34.2470588 178.086957,34.1058824 178.834783,34.1058824 C179.565217,34.1058824 180.208696,34.2117647 180.765217,34.4411765 C181.321739,34.6705882 181.73913,34.9882353 182.034783,35.3941176 L182.069565,35.3941176 L182.069565,34.5470588 C182.069565,34.4411765 182.156522,34.3705882 182.243478,34.3705882 L184.852174,34.3705882 C184.956522,34.3705882 185.026087,34.4588235 185.026087,34.5470588 L185.026087,44.7823529 Z M179.373913,42.2588235 C179.773913,42.2588235 180.121739,42.1882353 180.434783,42.0470588 C180.747826,41.9058824 181.008696,41.7294118 181.234783,41.4823529 C181.46087,41.2529412 181.617391,40.9705882 181.73913,40.6529412 C181.843478,40.3352941 181.913043,40 181.913043,39.6470588 C181.913043,39.2941176 181.86087,38.9588235 181.73913,38.6411765 C181.634783,38.3235294 181.46087,38.0588235 181.234783,37.8117647 C181.008696,37.5823529 180.747826,37.3882353 180.434783,37.2470588 C180.121739,37.1058824 179.773913,37.0352941 179.373913,37.0352941 C178.973913,37.0352941 178.626087,37.1058824 178.313043,37.2470588 C178,37.3882353 177.73913,37.5647059 177.513043,37.8117647 C177.286957,38.0411765 177.130435,38.3235294 177.008696,38.6411765 C176.904348,38.9588235 176.834783,39.2941176 176.834783,39.6470588 C176.834783,40 176.886957,40.3352941 177.008696,40.6529412 C177.113043,40.9705882 177.286957,41.2352941 177.513043,41.4823529 C177.73913,41.7117647 178,41.9058824 178.313043,42.0470588 C178.626087,42.1882353 178.973913,42.2588235 179.373913,42.2588235 Z M189.026087,48.6823529 L190.469565,45.0294118 C190.486957,44.9941176 190.486957,44.9411765 190.469565,44.8882353 L186.486957,34.6 C186.434783,34.4764706 186.521739,34.3529412 186.66087,34.3529412 L189.704348,34.3529412 C189.773913,34.3529412 189.843478,34.4058824 189.878261,34.4764706 L192.208696,41.0941176 L192.243478,41.0941176 L194.573913,34.4764706 C194.591304,34.4058824 194.66087,34.3529412 194.747826,34.3529412 L197.704348,34.3529412 C197.826087,34.3529412 197.913043,34.4764706 197.878261,34.6 L192.347826,48.8058824 C192.313043,48.8764706 192.26087,48.9294118 192.173913,48.9294118 L189.217391,48.9294118 C189.06087,48.9294118 188.973913,48.7882353 189.026087,48.6823529 Z" id="Combined-Shape"></path>
        </g>
    </g>
</svg>