<svg xmlns="http://www.w3.org/2000/svg" width="55" height="20" viewBox="0 0 55 20">
    <g fill="none" fill-rule="evenodd">
        <g fill="#FFF" fill-rule="nonzero">
            <g>
                <g>
                    <path d="M9.118.258c.375-.248.863-.248 1.237 0 .954.596 1.868 1.25 2.74 1.959 0 0 .236.164.243-.114 0 0-.038-.818.061-1.069.067-.194.25-.326.458-.328 0 0 1.076.054 1.76.145.306.046.54.296.564.602 0 0 .442 2.912.538 3.961 0 0 .089.534.864 1.439 0 0 1.572 2.193 1.768 2.622 0 0 .37.762-.422.864 0 0-1.445.143-1.582.175-.198.019-.343.192-.325.388v.011c0 .005-.075 5.062-.449 7.495 0 0-.096.965-.637.94 0 0-1.483-.048-1.828-.037 0 0-.15.01-.127-.198 0 0 .755-7.895.242-11.888 0 0-.02-.515-.418-.622 0 0-.359-.144-.707.328 0 0-2.352 2.965-2.349 7.123 0 0-.042 1.264.151 1.586 0 0 .12.22.734.27l.78.104s.144 0 .132.189c0 0-.177 2.315-.23 2.727-.003.094-.022.186-.057.274 0 0-.029.078-.273.07 0 0-3.43-.026-3.816 0 0 0-.162.015-.198-.088-.036-.104-.238-2.99-.231-3.402-.002-.084.046-.161.123-.196.532-.331.883-.885.954-1.504 0 0 .047-.24.02-1.325 0 0 .125-4.442.157-5.155 0 0 .027-.24-.29-.286-.158-.037-.316.06-.354.217 0 .009 0 .018-.004.026-.005.01-.223 2.93-.177 4.097 0 0 .075.759-.452.774 0 0-.516.076-.538-.555 0 0 .037-2.85.163-4.257.003-.16-.121-.294-.282-.306-.168-.025-.326.089-.353.255v.027c0 .008-.221 2.725-.177 4.164 0 0 .064.701-.498.672 0 0-.468.055-.494-.565 0 0 .129-3.901.161-4.204.021-.172-.1-.328-.274-.35-.01-.002-.02-.002-.031 0-.166-.023-.319.093-.34.258v.03c0 .01-.21 4.665-.177 6.034 0 0-.02 1.409 1.028 1.98 0 0 .155.089.158.224 0 0 .119 2.475.224 3.273 0 0 .04.19-.133.19l-2.635.072s-.438.03-.539-.507c-.088-.501-.568-4.632-.49-7.907.021-.204-.118-.39-.32-.43 0 0-1.35-.124-1.679-.204-.299-.077-.479-.38-.402-.677.013-.05.033-.097.06-.142 0 0 2.91-5.522 8.968-9.25zM23.66 5.175c0-.084.068-.152.153-.152h4.905c.58-.006 1.156.097 1.697.304.495.19.948.473 1.335.834.374.355.672.781.875 1.254.421 1.004.421 2.132 0 3.136-.203.472-.5.899-.875 1.253-.387.362-.84.645-1.335.834-.541.207-1.117.311-1.697.305h-2.053c-.04 0-.08.016-.108.044-.03.029-.045.067-.045.108v3.42c-.001.084-.07.151-.153.152h-2.546c-.085 0-.153-.068-.154-.152V5.175zm4.782 5.366c.422.014.832-.14 1.138-.43.3-.286.45-.662.451-1.129 0-.464-.151-.842-.451-1.128-.306-.289-.716-.444-1.138-.43h-1.777c-.085 0-.153.068-.153.152v2.81c0 .04.016.08.045.108.029.028.068.044.108.044l1.777.003zM43.19 16.514c0 .041-.017.08-.047.109-.03.029-.069.044-.11.044h-2.218c-.085 0-.153-.068-.154-.152v-.708h-.035c-.286.362-.668.637-1.102.797-.519.194-1.07.288-1.624.278-.604.006-1.203-.11-1.76-.342-.524-.218-.997-.542-1.39-.95-.398-.416-.71-.906-.92-1.442-.227-.58-.34-1.197-.333-1.818-.009-.655.098-1.307.315-1.926.196-.554.503-1.063.902-1.496.392-.417.869-.746 1.4-.965.565-.232 1.173-.348 1.786-.341.56-.011 1.118.083 1.643.278.43.157.807.434 1.083.797h.035V7.97c0-.084.07-.152.154-.152h2.218c.085 0 .154.068.154.152l.002 8.545zm-4.82-2.105c.31.005.616-.052.902-.17.515-.213.915-.633 1.101-1.156.192-.545.192-1.139 0-1.684-.187-.522-.586-.941-1.1-1.155-.58-.228-1.226-.228-1.806 0-.515.214-.914.633-1.101 1.155-.193.545-.193 1.14 0 1.684.186.522.586.942 1.1 1.156.286.117.594.175.904.169zM46.601 19.772l1.23-3.05c.013-.036.013-.076 0-.112l-3.398-8.588c-.018-.047-.012-.1.017-.141.028-.042.075-.067.126-.067h2.59c.066 0 .124.041.145.102l1.986 5.526h.035l1.986-5.526c.021-.06.08-.102.144-.102h2.518c.051 0 .098.025.127.067.028.042.034.095.015.142l-4.715 11.861c-.024.058-.08.096-.143.097h-2.52c-.05 0-.098-.025-.127-.067-.029-.042-.035-.095-.016-.142z" transform="translate(-16 -792) translate(0 780) translate(16 12)"/>
                </g>
            </g>
        </g>
    </g>
</svg>
